  0
SECTION
  2
HEADER
  9
$ACADVER
  1
AC1003
  9
$EXTMIN
 10
0.9
 20
21.1353472776323
  9
$EXTMAX
 10
20.8587868208
 20
1
  9
$INSUNITS
 70
1
  9
$INSBASE
 10
10.8793934104
 20
11.0676736388162
999
Created with OMAX LAYOUT for Windows. (www.omax.com) 11/30/2018
  0
ENDSEC
  0
SECTION
  2
TABLES
  0
TABLE
  2
LAYER
 70
    10
  0
LAYER
  2
0
 70
     0
 62
     7
  6
CONTINUOUS
  0
LAYER
  2
1
 70
     0
 62
     7
  6
CONTINUOUS
  0
LAYER
  2
2
 70
     0
 62
     7
  6
CONTINUOUS
  0
LAYER
  2
3
 70
     0
 62
     7
  6
CONTINUOUS
  0
LAYER
  2
4
 70
     0
 62
     7
  6
CONTINUOUS
  0
LAYER
  2
5
 70
     0
 62
     7
  6
CONTINUOUS
  0
LAYER
  2
6
 70
     0
 62
     7
  6
CONTINUOUS
  0
LAYER
  2
7
 70
     0
 62
     7
  6
CONTINUOUS
  0
LAYER
  2
8
 70
     0
 62
     7
  6
CONTINUOUS
  0
LAYER
  2
9
 70
     0
 62
     7
  6
CONTINUOUS
  0
LAYER
  2
10
 70
     0
 62
     7
  6
CONTINUOUS
  0
LAYER
  2
11
 70
     0
 62
     7
  6
CONTINUOUS
  0
LAYER
  2
12
 70
     0
 62
     7
  6
CONTINUOUS
  0
LAYER
  2
13
 70
     0
 62
     7
  6
CONTINUOUS
  0
LAYER
  2
14
 70
     0
 62
     7
  6
CONTINUOUS
  0
LAYER
  2
15
 70
     0
 62
     7
  6
CONTINUOUS
  0
LAYER
  2
16
 70
     0
 62
     7
  6
CONTINUOUS
  0
LAYER
  2
17
 70
     0
 62
     7
  6
CONTINUOUS
  0
LAYER
  2
18
 70
     0
 62
     7
  6
CONTINUOUS
  0
LAYER
  2
19
 70
     0
 62
     7
  6
CONTINUOUS
  0
LAYER
  2
20
 70
     0
 62
     7
  6
CONTINUOUS
  0
LAYER
  2
21
 70
     0
 62
     7
  6
CONTINUOUS
  0
LAYER
  2
22
 70
     0
 62
     7
  6
CONTINUOUS
  0
LAYER
  2
23
 70
     0
 62
     7
  6
CONTINUOUS
  0
LAYER
  2
24
 70
     0
 62
     7
  6
CONTINUOUS
  0
LAYER
  2
25
 70
     0
 62
     7
  6
CONTINUOUS
  0
LAYER
  2
26
 70
     0
 62
     7
  6
CONTINUOUS
  0
LAYER
  2
27
 70
     0
 62
     7
  6
CONTINUOUS
  0
LAYER
  2
28
 70
     0
 62
     7
  6
CONTINUOUS
  0
LAYER
  2
29
 70
     0
 62
     7
  6
CONTINUOUS
  0
LAYER
  2
30
 70
     0
 62
     7
  6
CONTINUOUS
  0
LAYER
  2
31
 70
     0
 62
     7
  6
CONTINUOUS
  0
ENDTAB
  0
ENDSEC
  0
SECTION
  2
ENTITIES
  0
ARC
  8
3
  6
CONTINUOUS
 62
3
 10
2.42228460180773
 20
16.0525808737063
 30
0.0
 40
0.0626000000036992
 50
151.103928687131
 51
210.555112683291
  0
ARC
  8
3
  6
CONTINUOUS
 62
3
 10
10.9271875748
 20
11.3583830469999
 30
0.0
 40
9.7769639944324
 50
90.0000000000001
 51
151.1039286787
  0
ARC
  8
3
  6
CONTINUOUS
 62
3
 10
10.9293365123999
 20
11.3583832832
 30
0.0
 40
9.77696399443235
 50
28.9086647044999
 51
90.0125933831999
  0
ARC
  8
3
  6
CONTINUOUS
 62
3
 10
19.433207514
 20
16.0544503401
 30
0.0
 40
0.0626000000000133
 50
270.006296691606
 51
28.9086647045054
  0
LINE
  8
3
  6
CONTINUOUS
 62
3
 10
19.4332143936
 20
15.9918503405
 30
0.0
 11
2.4222914814
 21
15.989980874
 31
0.0
  0
ARC
  8
3
  6
CONTINUOUS
 62
3
 10
2.42228804128389
 20
16.0525868990288
 30
0.0
 40
0.0626060250453574
 50
210.558261024735
 51
270.003148338871
  0
LINE
  8
3
  6
CONTINUOUS
 62
3
 10
7.49096017425
 20
13.85944234835
 30
0.0
 11
5.1259541955
 21
12.4174477528
 31
0.0
  0
ARC
  8
3
  6
CONTINUOUS
 62
3
 10
5.09336552529993
 20
12.4708962192999
 30
0.0
 40
0.0625999999999291
 50
270.000000000061
 51
301.37155307286
  0
LINE
  8
3
  6
CONTINUOUS
 62
3
 10
5.0933655253
 20
12.4082962193
 30
0.0
 11
1.0626
 21
12.4082962193
 31
0.0
  0
ARC
  8
3
  6
CONTINUOUS
 62
3
 10
1.0626
 20
12.4708962193
 30
0.0
 40
0.0625999999999989
 50
179.999999999999
 51
270.000000000001
  0
LINE
  8
3
  6
CONTINUOUS
 62
3
 10
1
 20
12.4708962193
 30
0.0
 11
1
 21
15.3548854105
 31
0.0
  0
ARC
  8
3
  6
CONTINUOUS
 62
3
 10
1.0626
 20
15.3548854105
 30
0.0
 40
0.0625999999999998
 50
89.9999999999998
 51
180
  0
LINE
  8
3
  6
CONTINUOUS
 62
3
 10
1.0626
 20
15.4174854105
 30
0.0
 11
9.8233774828
 21
15.4174854105
 31
0.0
  0
ARC
  8
3
  6
CONTINUOUS
 62
3
 10
9.82337748279998
 20
15.3548854105
 30
0.0
 40
0.0625999999999808
 50
301.371553072783
 51
89.9999999999815
  0
LINE
  8
3
  6
CONTINUOUS
 62
3
 10
9.855966153
 20
15.3014369439
 30
0.0
 11
7.49096017425
 21
13.85944234835
 31
0.0
  0
ARC
  8
3
  6
CONTINUOUS
 62
3
 10
15.4343524494567
 20
12.4719060977314
 30
0.0
 40
0.0625954358479265
 50
270.003148347186
 51
344.01183710321
  0
LINE
  8
3
  6
CONTINUOUS
 62
3
 10
15.434355889
 20
12.409310662
 30
0.0
 11
6.4219373173
 21
12.4083202152
 31
0.0
  0
ARC
  8
3
  6
CONTINUOUS
 62
3
 10
6.42193043769999
 20
12.4709202148
 30
0.0
 40
0.0626000000000122
 50
122.001512558
 51
270.006296691602
  0
LINE
  8
3
  6
CONTINUOUS
 62
3
 10
6.3887560903
 20
12.5240071499
 30
0.0
 11
10.8946559837
 21
15.3397712967
 31
0.0
  0
ARC
  8
3
  6
CONTINUOUS
 62
3
 10
10.9278303311
 20
15.2866843616
 30
0.0
 40
0.0625999999999994
 50
58.0110808251933
 51
122.001512557993
  0
LINE
  8
3
  6
CONTINUOUS
 62
3
 10
10.9609930094
 20
15.339778587
 30
0.0
 11
15.4675116877
 21
12.5250048869
 31
0.0
  0
ARC
  8
3
  6
CONTINUOUS
 62
3
 10
15.4343490093993
 20
12.4719106616004
 30
0.0
 40
0.0626000000000083
 50
344.008688757692
 51
58.0110808244922
  0
ARC
  8
3
  6
CONTINUOUS
 62
3
 10
5.53604609989128
 20
3.81946197550633
 30
0.0
 40
0.0625999999912772
 50
180.000000005788
 51
225.000000007074
  0
LINE
  8
3
  6
CONTINUOUS
 62
3
 10
5.4734460999
 20
3.8194619755
 30
0.0
 11
5.4734460999
 21
11.7651324455
 31
0.0
  0
ARC
  8
3
  6
CONTINUOUS
 62
3
 10
5.5360460999
 20
11.7651324455
 30
0.0
 40
0.0625999999999998
 50
89.9999999999998
 51
180
  0
LINE
  8
3
  6
CONTINUOUS
 62
3
 10
5.5360460999
 20
11.8277324455
 30
0.0
 11
7.0350283712
 21
11.8277324455
 31
0.0
  0
ARC
  8
3
  6
CONTINUOUS
 62
3
 10
7.0350283712
 20
11.7651324455
 30
0.0
 40
0.0625999999999998
 50
359.999999999999
 51
89.9999999999998
  0
LINE
  8
3
  6
CONTINUOUS
 62
3
 10
7.0976283712
 20
11.7651324455
 30
0.0
 11
7.0976283712
 21
3.8194619755
 31
0.0
  0
ARC
  8
3
  6
CONTINUOUS
 62
3
 10
7.0350283712
 20
3.8194619755
 30
0.0
 40
0.0625999999999998
 50
270
 51
1.53511459547513E-13
  0
LINE
  8
3
  6
CONTINUOUS
 62
3
 10
7.0350283712
 20
3.7568619755
 30
0.0
 11
5.5360460999
 21
3.7568619755
 31
0.0
  0
ARC
  8
3
  6
CONTINUOUS
 62
3
 10
5.53604609991204
 20
3.81946197550509
 30
0.0
 40
0.0626000000050886
 50
224.999999992834
 51
269.999999988976
  0
ARC
  8
3
  6
CONTINUOUS
 62
3
 10
14.1083387447986
 20
3.8201607615986
 30
0.0
 40
0.0625999999985953
 50
270.012593384487
 51
315.012593384487
  0
LINE
  8
3
  6
CONTINUOUS
 62
3
 10
14.108352504
 20
3.7575607631
 30
0.0
 11
12.4775024623
 21
3.7572023088
 31
0.0
  0
ARC
  8
3
  6
CONTINUOUS
 62
3
 10
12.4774887031
 20
3.8198023072
 30
0.0
 40
0.0626000000000031
 50
180.012593383201
 51
270.0125933832
  0
LINE
  8
3
  6
CONTINUOUS
 62
3
 10
12.4148887046
 20
3.819788548
 30
0.0
 11
12.4139443465
 21
8.1163091448
 31
0.0
  0
ARC
  8
3
  6
CONTINUOUS
 62
3
 10
12.476544345
 20
8.11632290410001
 30
0.0
 40
0.0625999999999893
 50
129.397713726903
 51
180.012593383203
  0
ARC
  8
3
  6
CONTINUOUS
 62
3
 10
10.9294004092
 20
10
 30
0.0
 40
2.37500000000002
 50
309.397713726899
 51
46.4088897164999
  0
ARC
  8
3
  6
CONTINUOUS
 62
3
 10
12.610143103
 20
11.765502126
 30
0.0
 40
0.0626000000000293
 50
90.0125933832113
 51
226.40888971651
  0
LINE
  8
3
  6
CONTINUOUS
 62
3
 10
12.6101293438
 20
11.8281021245
 30
0.0
 11
14.106578559
 21
11.8284310381
 31
0.0
  0
ARC
  8
3
  6
CONTINUOUS
 62
3
 10
14.1065923182
 20
11.7658310396
 30
0.0
 40
0.0626000000000256
 50
0.0125933831767389
 51
90.0125933831775
  0
LINE
  8
3
  6
CONTINUOUS
 62
3
 10
14.1691923167
 20
11.7658447988
 30
0.0
 11
14.1709387433
 21
3.8201745208
 31
0.0
  0
ARC
  8
3
  6
CONTINUOUS
 62
3
 10
14.1083387448
 20
3.82016076160199
 30
0.0
 40
0.0626000000000004
 50
315.012593381382
 51
0.0125933813826007
  0
LINE
  8
3
  6
CONTINUOUS
 62
3
 10
18.77831036815
 20
12.41002165395
 30
0.0
 11
16.7629276542
 21
12.4095786809
 31
0.0
  0
ARC
  8
3
  6
CONTINUOUS
 62
3
 10
16.7629138949
 20
12.4721786794
 30
0.0
 40
0.0625999999999774
 50
238.641040310382
 51
270.012593383182
  0
LINE
  8
3
  6
CONTINUOUS
 62
3
 10
16.7303369733
 20
12.4187230513
 30
0.0
 11
11.9996912408
 21
15.301672535
 31
0.0
  0
ARC
  8
3
  6
CONTINUOUS
 62
3
 10
12.0322681625
 20
15.3551281631
 30
0.0
 40
0.0626000000000086
 50
90.0125933832058
 51
238.641040310402
  0
LINE
  8
3
  6
CONTINUOUS
 62
3
 10
12.0322544033
 20
15.4177281616
 30
0.0
 11
20.7930316744
 21
15.4196537455
 31
0.0
  0
ARC
  8
3
  6
CONTINUOUS
 62
3
 10
20.7930454336
 20
15.357053747
 30
0.0
 40
0.0626000000000256
 50
0.0125933831767389
 51
90.0125933831775
  0
LINE
  8
3
  6
CONTINUOUS
 62
3
 10
20.8556454321
 20
15.3570675062
 30
0.0
 11
20.8562793214
 21
12.4730783847
 31
0.0
  0
ARC
  8
3
  6
CONTINUOUS
 62
3
 10
20.7936793229
 20
12.4730646255
 30
0.0
 40
0.0625999999999847
 50
270.01259338319
 51
0.0125933831893084
  0
LINE
  8
3
  6
CONTINUOUS
 62
3
 10
20.7936930821
 20
12.410464627
 30
0.0
 11
18.77831036815
 21
12.41002165395
 31
0.0
  0
ARC
  8
3
  6
CONTINUOUS
 62
3
 10
17.0308878291014
 20
11.7664737881014
 30
0.0
 40
0.0625999999985809
 50
90.0125933844749
 51
135.012593384474
  0
LINE
  8
3
  6
CONTINUOUS
 62
3
 10
17.0308740699
 20
11.8290737865
 30
0.0
 11
20.7938206877
 21
11.8299008672
 31
0.0
  0
ARC
  8
3
  6
CONTINUOUS
 62
3
 10
20.793834447
 20
11.7673008687
 30
0.0
 40
0.0626000000000248
 50
0.012593383174398
 51
90.012593383175
  0
LINE
  8
3
  6
CONTINUOUS
 62
3
 10
20.8564344455
 20
11.7673146279
 30
0.0
 11
20.858180872
 21
3.8216443499
 31
0.0
  0
ARC
  8
3
  6
CONTINUOUS
 62
3
 10
20.7955808735
 20
3.8216305907
 30
0.0
 40
0.0626000000000006
 50
270.012593383201
 51
0.0125933832015726
  0
LINE
  8
3
  6
CONTINUOUS
 62
3
 10
20.7955946328
 20
3.7590305922
 30
0.0
 11
17.0326480149
 21
3.7582035115
 31
0.0
  0
ARC
  8
3
  6
CONTINUOUS
 62
3
 10
17.0326342557
 20
3.82080351
 30
0.0
 40
0.0626000000000012
 50
180.0125933832
 51
270.0125933832
  0
LINE
  8
3
  6
CONTINUOUS
 62
3
 10
16.9700342572
 20
3.8207897508
 30
0.0
 11
16.9682878306
 21
11.7664600288
 31
0.0
  0
ARC
  8
3
  6
CONTINUOUS
 62
3
 10
17.0308878291136
 20
11.7664737880924
 30
0.0
 40
0.0626000000135568
 50
135.012593386512
 51
180.012593376223
  0
ARC
  8
3
  6
CONTINUOUS
 62
3
 10
17.0327970449014
 20
3.08016573660141
 30
0.0
 40
0.0625999999985949
 50
90.0125933844916
 51
135.012593384489
  0
LINE
  8
3
  6
CONTINUOUS
 62
3
 10
17.0327832857
 20
3.1427657351
 30
0.0
 11
20.7957299035
 21
3.1435928157
 31
0.0
  0
ARC
  8
3
  6
CONTINUOUS
 62
3
 10
20.7957436628
 20
3.0809928172
 30
0.0
 40
0.0626000000000013
 50
0.0125933831999951
 51
90.0125933831998
  0
LINE
  8
3
  6
CONTINUOUS
 62
3
 10
20.8583436613
 20
3.0810065765
 30
0.0
 11
20.8587868193
 21
1.064782441
 31
0.0
  0
ARC
  8
3
  6
CONTINUOUS
 62
3
 10
20.7961868208
 20
1.0647686817
 30
0.0
 40
0.0625999999999998
 50
270.0125933832
 51
0.0125933832006566
  0
LINE
  8
3
  6
CONTINUOUS
 62
3
 10
20.79620058
 20
1.0021686833
 30
0.0
 11
17.0332539622
 21
1.0013416026
 31
0.0
  0
ARC
  8
3
  6
CONTINUOUS
 62
3
 10
17.0332402029
 20
1.0639416011
 30
0.0
 40
0.0626000000000007
 50
180.0125933832
 51
270.0125933832
  0
LINE
  8
3
  6
CONTINUOUS
 62
3
 10
16.9706402045
 20
1.0639278419
 30
0.0
 11
16.9701970465
 21
3.0801519774
 31
0.0
  0
ARC
  8
3
  6
CONTINUOUS
 62
3
 10
17.0327970449136
 20
3.08016573659239
 30
0.0
 40
0.0626000000135726
 50
135.012593386523
 51
180.012593376232
  0
ARC
  8
3
  6
CONTINUOUS
 62
3
 10
5.53604265973561
 20
3.07883936700187
 30
0.0
 40
0.0625916961146009
 50
90.0031483451536
 51
135.006296694806
  0
LINE
  8
3
  6
CONTINUOUS
 62
3
 10
5.5360392203
 20
3.141431063
 30
0.0
 11
16.3222907898
 21
3.1426164505
 31
0.0
  0
ARC
  8
3
  6
CONTINUOUS
 62
3
 10
16.3222976694
 20
3.0800164509
 30
0.0
 40
0.0625999999999985
 50
0.0125933832007075
 51
90.0062966916004
  0
LINE
  8
3
  6
CONTINUOUS
 62
3
 10
16.3848976679
 20
3.0800302101
 30
0.0
 11
16.3853408259
 21
1.0638060754
 31
0.0
  0
ARC
  8
3
  6
CONTINUOUS
 62
3
 10
16.3227408274
 20
1.0637923162
 30
0.0
 40
0.0626000000000016
 50
270.0062966916
 51
0.0125933832005549
  0
LINE
  8
3
  6
CONTINUOUS
 62
3
 10
16.322747707
 20
1.0011923166
 30
0.0
 11
5.5360529796
 21
1.0000068804
 31
0.0
  0
ARC
  8
3
  6
CONTINUOUS
 62
3
 10
5.53604609999999
 20
1.06260688
 30
0.0
 40
0.062599999999994
 50
179.999999999994
 51
270.006296691594
  0
LINE
  8
3
  6
CONTINUOUS
 62
3
 10
5.4734461
 20
1.06260688
 30
0.0
 11
5.4734461
 21
3.0788310634
 31
0.0
  0
ARC
  8
3
  6
CONTINUOUS
 62
3
 10
5.53604610000848
 20
3.0788310633945
 30
0.0
 40
0.0626000000084787
 50
135.003148347187
 51
179.999999994962
  0
ARC
  8
3
  6
CONTINUOUS
 62
3
 10
16.3221348816986
 20
3.8206473450986
 30
0.0
 40
0.0625999999985968
 50
270.012593384488
 51
315.012593384487
  0
LINE
  8
3
  6
CONTINUOUS
 62
3
 10
16.3221486409
 20
3.7580473466
 30
0.0
 11
14.8231664058
 21
3.7577178763
 31
0.0
  0
ARC
  8
3
  6
CONTINUOUS
 62
3
 10
14.8231526466
 20
3.8203178748
 30
0.0
 40
0.0626000000000025
 50
180.0125933832
 51
270.0125933832
  0
LINE
  8
3
  6
CONTINUOUS
 62
3
 10
14.7605526481
 20
3.8203041156
 30
0.0
 11
14.7588062215
 21
11.7659743936
 31
0.0
  0
ARC
  8
3
  6
CONTINUOUS
 62
3
 10
14.82140622
 20
11.7659881528
 30
0.0
 40
0.0625999999999852
 50
90.0125933831869
 51
180.012593383187
  0
LINE
  8
3
  6
CONTINUOUS
 62
3
 10
14.8213924608
 20
11.8285881513
 30
0.0
 11
16.3203746959
 21
11.8289176216
 31
0.0
  0
ARC
  8
3
  6
CONTINUOUS
 62
3
 10
16.3203884551
 20
11.7663176231
 30
0.0
 40
0.0626000000000256
 50
0.0125933831767389
 51
90.0125933831775
  0
LINE
  8
3
  6
CONTINUOUS
 62
3
 10
16.3829884536
 20
11.7663313824
 30
0.0
 11
16.3847348802
 21
3.8206611043
 31
0.0
  0
ARC
  8
3
  6
CONTINUOUS
 62
3
 10
16.3221348817
 20
3.82064734510199
 30
0.0
 40
0.0626000000000029
 50
315.012593381378
 51
0.0125933813784278
  0
ARC
  8
3
  6
CONTINUOUS
 62
3
 10
11.7859542532615
 20
3.81964888769524
 30
0.0
 40
0.0625916974117024
 50
270.003148347728
 51
315.012593383839
  0
LINE
  8
3
  6
CONTINUOUS
 62
3
 10
11.7859576926
 20
3.7570571903
 30
0.0
 11
10.0722371563
 21
3.7568688559
 31
0.0
  0
ARC
  8
3
  6
CONTINUOUS
 62
3
 10
10.0722302767
 20
3.8194688555
 30
0.0
 40
0.0625999999999924
 50
179.999999999995
 51
270.006296691596
  0
LINE
  8
3
  6
CONTINUOUS
 62
3
 10
10.0096302767
 20
3.8194688555
 30
0.0
 11
10.0096302767
 21
7.7180812626
 31
0.0
  0
ARC
  8
3
  6
CONTINUOUS
 62
3
 10
10.0722302767
 20
7.7180812626
 30
0.0
 40
0.062600000000011
 50
69.4120292416962
 51
179.999999999995
  0
ARC
  8
3
  6
CONTINUOUS
 62
3
 10
10.9294004092
 20
9.99999999999997
 30
0.0
 40
2.37499999999999
 50
249.4120292417
 51
290.5509032958
  0
ARC
  8
3
  6
CONTINUOUS
 62
3
 10
11.7850940767
 20
7.71752719460001
 30
0.0
 40
0.062600000000002
 50
0.0125933831990791
 51
110.5509032958
  0
LINE
  8
3
  6
CONTINUOUS
 62
3
 10
11.8476940752
 20
7.7175409539
 30
0.0
 11
11.8485508115
 21
3.8196709492
 31
0.0
  0
ARC
  8
3
  6
CONTINUOUS
 62
3
 10
11.785950813
 20
3.81965719000199
 30
0.0
 40
0.0626000000000008
 50
315.009445035579
 51
0.0125933813794965
  0
ARC
  8
3
  6
CONTINUOUS
 62
3
 10
9.38069237139789
 20
3.81946197550029
 30
0.0
 40
0.0626000000002908
 50
270.000000001929
 51
315.000000000643
  0
LINE
  8
3
  6
CONTINUOUS
 62
3
 10
9.3806923714
 20
3.7568619755
 30
0.0
 11
7.7498422903
 21
3.7568619755
 31
0.0
  0
ARC
  8
3
  6
CONTINUOUS
 62
3
 10
7.7498422903
 20
3.8194619755
 30
0.0
 40
0.0625999999999998
 50
180
 51
270
  0
LINE
  8
3
  6
CONTINUOUS
 62
3
 10
7.6872422903
 20
3.8194619755
 30
0.0
 11
7.6872422903
 21
11.7651324455
 31
0.0
  0
ARC
  8
3
  6
CONTINUOUS
 62
3
 10
7.7498422903
 20
11.7651324455
 30
0.0
 40
0.0625999999999998
 50
89.9999999999998
 51
180
  0
LINE
  8
3
  6
CONTINUOUS
 62
3
 10
7.7498422903
 20
11.8277324455
 30
0.0
 11
9.2482694773
 21
11.8277324455
 31
0.0
  0
ARC
  8
3
  6
CONTINUOUS
 62
3
 10
9.24826947729998
 20
11.7651324455
 30
0.0
 40
0.0625999999999822
 50
313.603711075887
 51
89.9999999999871
  0
ARC
  8
3
  6
CONTINUOUS
 62
3
 10
10.9294004092
 20
9.99999999999996
 30
0.0
 40
2.37499999999999
 50
133.603711075899
 51
230.554694767099
  0
ARC
  8
3
  6
CONTINUOUS
 62
3
 10
9.38069237140001
 20
8.11760865550005
 30
0.0
 40
0.0625999999999839
 50
359.999999999953
 51
50.5546947670532
  0
LINE
  8
3
  6
CONTINUOUS
 62
3
 10
9.4432923714
 20
8.1176086555
 30
0.0
 11
9.4432923714
 21
3.8194619755
 31
0.0
  0
ARC
  8
3
  6
CONTINUOUS
 62
3
 10
9.3806923713983
 20
3.81946197550269
 30
0.0
 40
0.0626000000016962
 50
314.999999998824
 51
359.999999997538
  0
ARC
  8
3
  6
CONTINUOUS
 62
3
 10
4.82554670869789
 20
3.81946197550029
 30
0.0
 40
0.0626000000002912
 50
270.000000001929
 51
315.000000000643
  0
LINE
  8
3
  6
CONTINUOUS
 62
3
 10
4.8255467087
 20
3.7568619755
 30
0.0
 11
1.0626
 21
3.7568619755
 31
0.0
  0
ARC
  8
3
  6
CONTINUOUS
 62
3
 10
1.0626
 20
3.8194619755
 30
0.0
 40
0.0626000000000002
 50
180
 51
269.999999999999
  0
LINE
  8
3
  6
CONTINUOUS
 62
3
 10
1
 20
3.8194619755
 30
0.0
 11
1
 21
11.7651324455
 31
0.0
  0
ARC
  8
3
  6
CONTINUOUS
 62
3
 10
1.0626
 20
11.7651324455
 30
0.0
 40
0.0625999999999998
 50
89.9999999999998
 51
180
  0
LINE
  8
3
  6
CONTINUOUS
 62
3
 10
1.0626
 20
11.8277324455
 30
0.0
 11
4.8255467087
 21
11.8277324455
 31
0.0
  0
ARC
  8
3
  6
CONTINUOUS
 62
3
 10
4.8255467087
 20
11.7651324455
 30
0.0
 40
0.0625999999999998
 50
359.999999999999
 51
89.9999999999998
  0
LINE
  8
3
  6
CONTINUOUS
 62
3
 10
4.8881467087
 20
11.7651324455
 30
0.0
 11
4.8881467087
 21
3.8194619755
 31
0.0
  0
ARC
  8
3
  6
CONTINUOUS
 62
3
 10
4.8255467086983
 20
3.81946197550269
 30
0.0
 40
0.0626000000016958
 50
314.999999998824
 51
359.999999997538
  0
LINE
  8
3
  6
CONTINUOUS
 62
3
 10
2.94407335435
 20
3.1414241842
 30
0.0
 11
4.8255467087
 21
3.1414241842
 31
0.0
  0
ARC
  8
3
  6
CONTINUOUS
 62
3
 10
4.8255467087
 20
3.0788241842
 30
0.0
 40
0.0625999999999998
 50
359.999999999999
 51
89.9999999999998
  0
LINE
  8
3
  6
CONTINUOUS
 62
3
 10
4.8881467087
 20
3.0788241842
 30
0.0
 11
4.8881467087
 21
1.0626
 31
0.0
  0
ARC
  8
3
  6
CONTINUOUS
 62
3
 10
4.8255467087
 20
1.0626
 30
0.0
 40
0.0626000000000015
 50
270.000000000001
 51
1.78195545645683E-12
  0
LINE
  8
3
  6
CONTINUOUS
 62
3
 10
4.8255467087
 20
1
 30
0.0
 11
1.0626
 21
1
 31
0.0
  0
ARC
  8
3
  6
CONTINUOUS
 62
3
 10
1.0626
 20
1.0626
 30
0.0
 40
0.0625999999999998
 50
180
 51
270
  0
LINE
  8
3
  6
CONTINUOUS
 62
3
 10
1
 20
1.0626
 30
0.0
 11
1
 21
3.0788241842
 31
0.0
  0
ARC
  8
3
  6
CONTINUOUS
 62
3
 10
1.0626
 20
3.0788241842
 30
0.0
 40
0.0625999999999998
 50
89.9999999999998
 51
180
  0
LINE
  8
3
  6
CONTINUOUS
 62
3
 10
1.0626
 20
3.1414241842
 30
0.0
 11
2.94407335435
 21
3.1414241842
 31
0.0
  0
LINE
  8
9
  6
CONTINUOUS
 62
9
 10
2.24265525869461
 20
15.9389402793064
 30
0.0
 11
2.36837720263082
 21
16.0207571040609
 31
0.0
  0
LINE
  8
9
  6
CONTINUOUS
 62
9
 10
2.36837720263082
 20
16.0207571040609
 30
0.0
 11
2.32425242259289
 21
15.997241071517
 31
0.0
  0
LINE
  8
9
  6
CONTINUOUS
 62
9
 10
7.57456011604976
 20
13.7348989834883
 30
0.0
 11
7.49096017425
 21
13.85944234835
 31
0.0
  0
LINE
  8
9
  6
CONTINUOUS
 62
9
 10
7.49096017425
 20
13.85944234835
 30
0.0
 11
7.51510255735429
 21
13.8156571300904
 31
0.0
  0
LINE
  8
9
  6
CONTINUOUS
 62
9
 10
15.6403874041256
 20
12.4196702031423
 30
0.0
 11
15.4945266075342
 21
12.454664888706
 31
0.0
  0
LINE
  8
9
  6
CONTINUOUS
 62
9
 10
15.4945266075342
 20
12.454664888706
 30
0.0
 11
15.5419451956713
 21
12.4388068466111
 31
0.0
  0
LINE
  8
9
  6
CONTINUOUS
 62
9
 10
5.3904426842707
 20
3.66460549047186
 30
0.0
 11
5.49178121540063
 21
3.77519709100475
 31
0.0
  0
LINE
  8
9
  6
CONTINUOUS
 62
9
 10
5.49178121540063
 20
3.77519709100475
 30
0.0
 11
5.45491734856392
 21
3.74141758061983
 31
0.0
  0
LINE
  8
9
  6
CONTINUOUS
 62
9
 10
14.2632272291323
 20
3.67459138631135
 30
0.0
 11
14.1526133574762
 21
3.77590560741204
 31
0.0
  0
LINE
  8
9
  6
CONTINUOUS
 62
9
 10
14.1526133574762
 20
3.77590560741204
 30
0.0
 11
14.1864009695723
 21
3.73904916606398
 31
0.0
  0
LINE
  8
9
  6
CONTINUOUS
 62
9
 10
18.7848862141157
 20
12.2601658624375
 30
0.0
 11
18.77831036815
 21
12.41002165395
 31
0.0
  0
LINE
  8
9
  6
CONTINUOUS
 62
9
 10
18.77831036815
 20
12.41002165395
 30
0.0
 11
18.7761403781741
 21
12.3600687647092
 31
0.0
  0
LINE
  8
9
  6
CONTINUOUS
 62
9
 10
16.8759993447677
 20
11.9120431633887
 30
0.0
 11
16.9866132164238
 21
11.810728942288
 31
0.0
  0
LINE
  8
9
  6
CONTINUOUS
 62
9
 10
16.9866132164238
 20
11.810728942288
 30
0.0
 11
16.9528256043277
 21
11.8475853836361
 31
0.0
  0
LINE
  8
9
  6
CONTINUOUS
 62
9
 10
16.8779085605677
 20
3.22573511188866
 30
0.0
 11
16.9885224322238
 21
3.12442089078796
 31
0.0
  0
LINE
  8
9
  6
CONTINUOUS
 62
9
 10
16.9885224322238
 20
3.12442089078796
 30
0.0
 11
16.9547348201277
 21
3.16127733213603
 31
0.0
  0
LINE
  8
9
  6
CONTINUOUS
 62
9
 10
5.38118161444702
 20
3.22442596961274
 30
0.0
 11
5.49177878325481
 21
3.12309351552373
 31
0.0
  0
LINE
  8
9
  6
CONTINUOUS
 62
9
 10
5.49177878325481
 20
3.12309351552373
 30
0.0
 11
5.45799724729158
 21
3.1599555261575
 31
0.0
  0
LINE
  8
9
  6
CONTINUOUS
 62
9
 10
16.4770233660323
 20
3.67507796981134
 30
0.0
 11
16.3664094943762
 21
3.77639219091204
 31
0.0
  0
LINE
  8
9
  6
CONTINUOUS
 62
9
 10
16.3664094943762
 20
3.77639219091204
 30
0.0
 11
16.4001971064723
 21
3.73953574956398
 31
0.0
  0
LINE
  8
9
  6
CONTINUOUS
 62
9
 10
11.9408312982068
 20
3.67407930396375
 30
0.0
 11
11.8302229938328
 21
3.77539960303316
 31
0.0
  0
LINE
  8
9
  6
CONTINUOUS
 62
9
 10
11.8302229938328
 20
3.77539960303316
 30
0.0
 11
11.8640085806533
 21
3.73854130514523
 31
0.0
  0
LINE
  8
9
  6
CONTINUOUS
 62
9
 10
9.53554885642466
 20
3.67385855985844
 30
0.0
 11
9.42495725590087
 21
3.77519709099831
 31
0.0
  0
LINE
  8
9
  6
CONTINUOUS
 62
9
 10
9.42495725590087
 20
3.77519709099831
 30
0.0
 11
9.45873676628248
 21
3.73833322415856
 31
0.0
  0
LINE
  8
9
  6
CONTINUOUS
 62
9
 10
4.98040319372467
 20
3.67385855985844
 30
0.0
 11
4.86981159320087
 21
3.77519709099831
 31
0.0
  0
LINE
  8
9
  6
CONTINUOUS
 62
9
 10
4.86981159320087
 20
3.77519709099831
 30
0.0
 11
4.90359110358248
 21
3.73833322415856
 31
0.0
  0
LINE
  8
9
  6
CONTINUOUS
 62
9
 10
2.9375304462452
 20
3.29128141743728
 30
0.0
 11
2.94407335435
 21
3.1414241842
 31
0.0
  0
LINE
  8
9
  6
CONTINUOUS
 62
9
 10
2.94407335435
 20
3.1414241842
 30
0.0
 11
2.94625432371827
 21
3.1913765952791
 31
0.0
  0
LINE
  8
10
  6
CONTINUOUS
 62
10
 10
1
 20
21.1353470414324
 30
0.0
 11
2.24265525869461
 21
15.9389402793064
 31
0.0
  0
LINE
  8
10
  6
CONTINUOUS
 62
10
 10
2.32425242259289
 20
15.997241071517
 30
0.0
 11
7.57456011604976
 21
13.7348989834883
 31
0.0
  0
LINE
  8
10
  6
CONTINUOUS
 62
10
 10
7.51510255735429
 20
13.8156571300904
 30
0.0
 11
15.6403874041256
 21
12.4196702031423
 31
0.0
  0
LINE
  8
10
  6
CONTINUOUS
 62
10
 10
15.5419451956713
 20
12.4388068466111
 30
0.0
 11
5.3904426842707
 21
3.66460549047186
 31
0.0
  0
LINE
  8
10
  6
CONTINUOUS
 62
10
 10
5.45491734856392
 20
3.74141758061983
 30
0.0
 11
14.2632272291323
 21
3.67459138631135
 31
0.0
  0
LINE
  8
10
  6
CONTINUOUS
 62
10
 10
14.1864009695723
 20
3.73904916606398
 30
0.0
 11
18.7848862141157
 21
12.2601658624375
 31
0.0
  0
LINE
  8
10
  6
CONTINUOUS
 62
10
 10
18.7761403781741
 20
12.3600687647092
 30
0.0
 11
16.8759993447677
 21
11.9120431633887
 31
0.0
  0
LINE
  8
10
  6
CONTINUOUS
 62
10
 10
16.9528256043277
 20
11.8475853836361
 30
0.0
 11
16.8779085605677
 21
3.22573511188866
 31
0.0
  0
LINE
  8
10
  6
CONTINUOUS
 62
10
 10
16.9547348201277
 20
3.16127733213603
 30
0.0
 11
5.38118161444702
 21
3.22442596961274
 31
0.0
  0
LINE
  8
10
  6
CONTINUOUS
 62
10
 10
5.45799724729158
 20
3.1599555261575
 30
0.0
 11
16.4770233660323
 21
3.67507796981134
 31
0.0
  0
LINE
  8
10
  6
CONTINUOUS
 62
10
 10
16.4001971064723
 20
3.73953574956398
 30
0.0
 11
11.9408312982068
 21
3.67407930396375
 31
0.0
  0
LINE
  8
10
  6
CONTINUOUS
 62
10
 10
11.8640085806533
 20
3.73854130514523
 30
0.0
 11
9.53554885642466
 21
3.67385855985844
 31
0.0
  0
LINE
  8
10
  6
CONTINUOUS
 62
10
 10
9.45873676628248
 20
3.73833322415856
 30
0.0
 11
4.98040319372467
 21
3.67385855985844
 31
0.0
  0
LINE
  8
10
  6
CONTINUOUS
 62
10
 10
4.90359110358248
 20
3.73833322415856
 30
0.0
 11
2.9375304462452
 21
3.29128141743728
 31
0.0
  0
LINE
  8
10
  6
CONTINUOUS
 62
10
 10
2.94625432371827
 20
3.1913765952791
 30
0.0
 11
0.9
 21
1
 31
0.0
  0
ENDSEC
  0
EOF
