  0
SECTION
  2
HEADER
  9
$ACADVER
  1
AC1003
  9
$EXTMIN
 10
0.110314250621471
 20
4.79822199389595
  9
$EXTMAX
 10
2.29999999999997
 20
0.201778006104151
  9
$INSUNITS
 70
1
  9
$INSBASE
 10
1.20515712531072
 20
2.50000000000005
999
Created with OMAX LAYOUT for Windows. (www.omax.com) 11/30/2018
  0
ENDSEC
  0
SECTION
  2
TABLES
  0
TABLE
  2
LAYER
 70
    10
  0
LAYER
  2
0
 70
     0
 62
     7
  6
CONTINUOUS
  0
LAYER
  2
1
 70
     0
 62
     7
  6
CONTINUOUS
  0
LAYER
  2
2
 70
     0
 62
     7
  6
CONTINUOUS
  0
LAYER
  2
3
 70
     0
 62
     7
  6
CONTINUOUS
  0
LAYER
  2
4
 70
     0
 62
     7
  6
CONTINUOUS
  0
LAYER
  2
5
 70
     0
 62
     7
  6
CONTINUOUS
  0
LAYER
  2
6
 70
     0
 62
     7
  6
CONTINUOUS
  0
LAYER
  2
7
 70
     0
 62
     7
  6
CONTINUOUS
  0
LAYER
  2
8
 70
     0
 62
     7
  6
CONTINUOUS
  0
LAYER
  2
9
 70
     0
 62
     7
  6
CONTINUOUS
  0
LAYER
  2
10
 70
     0
 62
     7
  6
CONTINUOUS
  0
LAYER
  2
11
 70
     0
 62
     7
  6
CONTINUOUS
  0
LAYER
  2
12
 70
     0
 62
     7
  6
CONTINUOUS
  0
LAYER
  2
13
 70
     0
 62
     7
  6
CONTINUOUS
  0
LAYER
  2
14
 70
     0
 62
     7
  6
CONTINUOUS
  0
LAYER
  2
15
 70
     0
 62
     7
  6
CONTINUOUS
  0
LAYER
  2
16
 70
     0
 62
     7
  6
CONTINUOUS
  0
LAYER
  2
17
 70
     0
 62
     7
  6
CONTINUOUS
  0
LAYER
  2
18
 70
     0
 62
     7
  6
CONTINUOUS
  0
LAYER
  2
19
 70
     0
 62
     7
  6
CONTINUOUS
  0
LAYER
  2
20
 70
     0
 62
     7
  6
CONTINUOUS
  0
LAYER
  2
21
 70
     0
 62
     7
  6
CONTINUOUS
  0
LAYER
  2
22
 70
     0
 62
     7
  6
CONTINUOUS
  0
LAYER
  2
23
 70
     0
 62
     7
  6
CONTINUOUS
  0
LAYER
  2
24
 70
     0
 62
     7
  6
CONTINUOUS
  0
LAYER
  2
25
 70
     0
 62
     7
  6
CONTINUOUS
  0
LAYER
  2
26
 70
     0
 62
     7
  6
CONTINUOUS
  0
LAYER
  2
27
 70
     0
 62
     7
  6
CONTINUOUS
  0
LAYER
  2
28
 70
     0
 62
     7
  6
CONTINUOUS
  0
LAYER
  2
29
 70
     0
 62
     7
  6
CONTINUOUS
  0
LAYER
  2
30
 70
     0
 62
     7
  6
CONTINUOUS
  0
LAYER
  2
31
 70
     0
 62
     7
  6
CONTINUOUS
  0
ENDTAB
  0
ENDSEC
  0
SECTION
  2
ENTITIES
  0
ARC
  8
3
  6
CONTINUOUS
 62
3
 10
1.57390713921708
 20
3.93700787400996
 30
0.0
 40
0.0649999999955234
 50
254.999999994851
 51
5.14370116972197E-9
  0
ARC
  8
3
  6
CONTINUOUS
 62
3
 10
1.5739071392126
 20
3.9370078740158
 30
0.0
 40
0.0650000000000031
 50
359.999999999997
 51
180
  0
ARC
  8
3
  6
CONTINUOUS
 62
3
 10
1.5739071392088
 20
3.93700787401288
 30
0.0
 40
0.0649999999962011
 50
179.999999997426
 51
255.000000002569
  0
ARC
  8
3
  6
CONTINUOUS
 62
3
 10
1.57390713921337
 20
3.56299212597846
 30
0.0
 40
0.0649999999992327
 50
194.999999994852
 51
5.14374569748751E-9
  0
ARC
  8
3
  6
CONTINUOUS
 62
3
 10
1.5739071392126
 20
3.5629921259843
 30
0.0
 40
0.0650000000000013
 50
359.999999999997
 51
180
  0
ARC
  8
3
  6
CONTINUOUS
 62
3
 10
1.57390713919044
 20
3.56299212598138
 30
0.0
 40
0.0649999999778424
 50
179.999999997426
 51
195.000000002569
  0
ARC
  8
3
  6
CONTINUOUS
 62
3
 10
1.24999999999776
 20
3.37598425197142
 30
0.0
 40
0.0649999999977621
 50
74.9999999974263
 51
180.000000002572
  0
ARC
  8
3
  6
CONTINUOUS
 62
3
 10
1.25
 20
3.3759842519685
 30
0.0
 40
0.0650000000000013
 50
179.999999999997
 51
359.999999999997
  0
ARC
  8
3
  6
CONTINUOUS
 62
3
 10
1.2500000000076
 20
3.37598425197434
 30
0.0
 40
0.0649999999923964
 50
359.999999994853
 51
75.0000000051424
  0
ARC
  8
3
  6
CONTINUOUS
 62
3
 10
1.24999999999138
 20
3.75000000000862
 30
0.0
 40
0.127952755896894
 50
89.9999999961409
 51
180.000000003858
  0
ARC
  8
3
  6
CONTINUOUS
 62
3
 10
1.25
 20
3.75
 30
0.0
 40
0.127952755905511
 50
179.999999999998
 51
359.999999999998
  0
ARC
  8
3
  6
CONTINUOUS
 62
3
 10
1.25000000000862
 20
3.75000000000862
 30
0.0
 40
0.127952755896894
 50
359.99999999614
 51
90.0000000038577
  0
ARC
  8
3
  6
CONTINUOUS
 62
3
 10
1.25000000000077
 20
4.12401574802566
 30
0.0
 40
0.0649999999992327
 50
194.999999994851
 51
5.1435421419879E-9
  0
ARC
  8
3
  6
CONTINUOUS
 62
3
 10
1.25
 20
4.1240157480315
 30
0.0
 40
0.0650000000000013
 50
359.999999999997
 51
180
  0
ARC
  8
3
  6
CONTINUOUS
 62
3
 10
1.24999999997784
 20
4.12401574802858
 30
0.0
 40
0.0649999999778441
 50
179.999999997426
 51
195.000000002568
  0
ARC
  8
3
  6
CONTINUOUS
 62
3
 10
0.926092860791879
 20
3.93700787400996
 30
0.0
 40
0.0649999999955219
 50
254.999999994852
 51
5.1438156696905E-9
  0
ARC
  8
3
  6
CONTINUOUS
 62
3
 10
0.926092860787399
 20
3.9370078740158
 30
0.0
 40
0.0650000000000013
 50
359.999999999997
 51
180
  0
ARC
  8
3
  6
CONTINUOUS
 62
3
 10
0.926092860783597
 20
3.93700787401288
 30
0.0
 40
0.0649999999961995
 50
179.999999997426
 51
255.000000002569
  0
ARC
  8
3
  6
CONTINUOUS
 62
3
 10
0.926092860789818
 20
3.56299212597846
 30
0.0
 40
0.0649999999975831
 50
224.999999994851
 51
5.14374569748751E-9
  0
ARC
  8
3
  6
CONTINUOUS
 62
3
 10
0.926092860787399
 20
3.5629921259843
 30
0.0
 40
0.0650000000000013
 50
359.999999999997
 51
180
  0
ARC
  8
3
  6
CONTINUOUS
 62
3
 10
0.926092860780356
 20
3.56299212598138
 30
0.0
 40
0.0649999999929584
 50
179.999999997426
 51
225.000000002569
  0
LINE
  8
3
  6
CONTINUOUS
 62
3
 10
0.4525739724641
 20
3.23059826574185
 30
0.0
 11
0.4321572612527
 21
3.2259180998789
 31
0.0
  0
ARC
  8
3
  6
CONTINUOUS
 62
3
 10
0.380516622803401
 20
3.4899583720244
 30
0.0
 40
0.269042786288953
 50
271.763447755789
 51
281.066144906034
  0
ARC
  8
3
  6
CONTINUOUS
 62
3
 10
0.337261203739264
 20
4.87207869887978
 30
0.0
 40
1.65183978828846
 50
270.53217888283
 51
271.787824811768
  0
ARC
  8
3
  6
CONTINUOUS
 62
3
 10
0.35245782545438
 20
3.2360174495577
 30
0.0
 40
0.0157079632679467
 50
209.797851252407
 51
270.532178882832
  0
ARC
  8
3
  6
CONTINUOUS
 62
3
 10
1.2500000000001
 20
3.75
 30
0.0
 40
1.05000000000004
 50
207.044254010748
 51
209.797851252407
  0
ARC
  8
3
  6
CONTINUOUS
 62
3
 10
0.328801999152879
 20
3.2797295879151
 30
0.0
 40
0.0157079632679493
 50
146.309926380325
 51
207.04425401075
  0
ARC
  8
3
  6
CONTINUOUS
 62
3
 10
1.69014586921273
 20
2.37216679874007
 30
0.0
 40
1.6518397882884
 50
145.054280451386
 51
146.309926380324
  0
ARC
  8
3
  6
CONTINUOUS
 62
3
 10
0.556739534430297
 20
3.16432695266089
 30
0.0
 40
0.269042786288966
 50
135.775960357123
 51
145.078657507368
  0
LINE
  8
3
  6
CONTINUOUS
 62
3
 10
0.363938621762829
 20
3.3519751046069
 30
0.0
 11
0.3941085428932
 21
3.3810398608551
 31
0.0
  0
ARC
  8
3
  6
CONTINUOUS
 62
3
 10
0.4663670463293
 20
3.3106632827132
 30
0.0
 40
0.100867011801615
 50
112.831636763949
 51
135.755915861137
  0
LINE
  8
3
  6
CONTINUOUS
 62
3
 10
0.4272281696103
 20
3.4036272671317
 30
0.0
 11
0.4706071488026
 21
3.4218890682981
 31
0.0
  0
ARC
  8
3
  6
CONTINUOUS
 62
3
 10
0.4624979012098
 20
3.4411517291599
 30
0.0
 40
0.0209000000000011
 50
292.830252234474
 51
21.4144777217208
  0
ARC
  8
3
  6
CONTINUOUS
 62
3
 10
1.25
 20
3.75
 30
0.0
 40
0.824999999999975
 50
196.480259120385
 51
201.41447772172
  0
ARC
  8
3
  6
CONTINUOUS
 62
3
 10
0.4388516583677
 20
3.5100308814302
 30
0.0
 40
0.0208999999999998
 50
16.4802591203845
 51
105.06448460763
  0
LINE
  8
3
  6
CONTINUOUS
 62
3
 10
0.433419622962401
 20
3.5302126303969
 30
0.0
 11
0.3879708827925
 21
3.5179798369885
 31
0.0
  0
ARC
  8
3
  6
CONTINUOUS
 62
3
 10
0.361757294851591
 20
3.6153810786492
 30
0.0
 40
0.100867011801616
 50
262.138820980967
 51
285.063100078155
  0
LINE
  8
3
  6
CONTINUOUS
 62
3
 10
0.347961371612159
 20
3.5154619785143
 30
0.0
 11
0.306301121903999
 21
3.5198674059664
 31
0.0
  0
ARC
  8
3
  6
CONTINUOUS
 62
3
 10
0.34319225190053
 20
3.7863689357589
 30
0.0
 40
0.269042786288965
 50
252.816079334735
 51
262.11877648498
  0
ARC
  8
3
  6
CONTINUOUS
 62
3
 10
0.75105426725953
 20
5.10764718261389
 30
0.0
 40
1.65183978828841
 50
251.58481046178
 51
252.840456390718
  0
ARC
  8
3
  6
CONTINUOUS
 62
3
 10
0.234199274852181
 20
3.5552979095222
 30
0.0
 40
0.0157079632679493
 50
190.850482831352
 51
251.584810461777
  0
ARC
  8
3
  6
CONTINUOUS
 62
3
 10
1.25
 20
3.74999999999999
 30
0.0
 40
1.04999999999998
 50
188.096885589696
 51
190.850482831355
  0
ARC
  8
3
  6
CONTINUOUS
 62
3
 10
0.22601849459199
 20
3.6043226378959
 30
0.0
 40
0.0157079632679484
 50
127.362557959272
 51
188.096885589697
  0
ARC
  8
3
  6
CONTINUOUS
 62
3
 10
1.21891584286297
 20
2.30390647195478
 30
0.0
 40
1.65183978828837
 50
126.106912030333
 51
127.362557959271
  0
ARC
  8
3
  6
CONTINUOUS
 62
3
 10
0.404134571076198
 20
3.4211616390184
 30
0.0
 40
0.269042786288955
 50
116.828591936072
 51
126.131289086317
  0
LINE
  8
3
  6
CONTINUOUS
 62
3
 10
0.28270939899385
 20
3.6612448505075
 30
0.0
 11
0.320681941506059
 21
3.6789386407159
 31
0.0
  0
ARC
  8
3
  6
CONTINUOUS
 62
3
 10
0.366174042348299
 20
3.5889129619862
 30
0.0
 40
0.100867011801624
 50
93.8842683428943
 51
116.808547440082
  0
LINE
  8
3
  6
CONTINUOUS
 62
3
 10
0.359341174322561
 20
3.6895482738023
 30
0.0
 11
0.406299357915399
 21
3.6927354686916
 31
0.0
  0
ARC
  8
3
  6
CONTINUOUS
 62
3
 10
0.4048840674822
 20
3.7135874938448
 30
0.0
 40
0.0209000000000001
 50
273.88288381342
 51
2.46710930066741
  0
ARC
  8
3
  6
CONTINUOUS
 62
3
 10
1.25
 20
3.75
 30
0.0
 40
0.824999999999978
 50
177.532890699332
 51
182.467109300668
  0
ARC
  8
3
  6
CONTINUOUS
 62
3
 10
0.4048840674822
 20
3.7864125061553
 30
0.0
 40
0.0209000000000005
 50
357.532890699332
 51
86.1171161865777
  0
LINE
  8
3
  6
CONTINUOUS
 62
3
 10
0.406299357915399
 20
3.8072645313085
 30
0.0
 11
0.359341174322561
 21
3.8104517261977
 31
0.0
  0
ARC
  8
3
  6
CONTINUOUS
 62
3
 10
0.3661740423483
 20
3.9110870380139
 30
0.0
 40
0.100867011801621
 50
243.191452559916
 51
266.115731657104
  0
LINE
  8
3
  6
CONTINUOUS
 62
3
 10
0.320681941506059
 20
3.8210613592842
 30
0.0
 11
0.28270939899385
 21
3.8387551494926
 31
0.0
  0
ARC
  8
3
  6
CONTINUOUS
 62
3
 10
0.404134571076199
 20
4.0788383609816
 30
0.0
 40
0.269042786288954
 50
233.868710913682
 51
243.171408063927
  0
ARC
  8
3
  6
CONTINUOUS
 62
3
 10
1.21891584286297
 20
5.19609352804522
 30
0.0
 40
1.65183978828835
 50
232.637442040727
 51
233.893087969665
  0
ARC
  8
3
  6
CONTINUOUS
 62
3
 10
0.22601849459199
 20
3.8956773621042
 30
0.0
 40
0.0157079632679487
 50
171.903114410301
 51
232.637442040726
  0
ARC
  8
3
  6
CONTINUOUS
 62
3
 10
1.25
 20
3.75
 30
0.0
 40
1.04999999999997
 50
169.149517168644
 51
171.903114410303
  0
ARC
  8
3
  6
CONTINUOUS
 62
3
 10
0.234199274852181
 20
3.9447020904779
 30
0.0
 40
0.0157079632679491
 50
108.415189538221
 51
169.149517168646
  0
ARC
  8
3
  6
CONTINUOUS
 62
3
 10
0.751054267259467
 20
2.39235281738613
 30
0.0
 40
1.65183978828841
 50
107.159543609281
 51
108.415189538219
  0
ARC
  8
3
  6
CONTINUOUS
 62
3
 10
0.343192251900506
 20
3.7136310642412
 30
0.0
 40
0.269042786288958
 50
97.8812235150146
 51
107.18392066526
  0
LINE
  8
3
  6
CONTINUOUS
 62
3
 10
0.306301121903999
 20
3.9801325940336
 30
0.0
 11
0.347961371612159
 21
3.9845380214857
 31
0.0
  0
ARC
  8
3
  6
CONTINUOUS
 62
3
 10
0.361757294851587
 20
3.8846189213509
 30
0.0
 40
0.100867011801616
 50
74.9368999218429
 51
97.861179019031
  0
LINE
  8
3
  6
CONTINUOUS
 62
3
 10
0.3879708827925
 20
3.9820201630116
 30
0.0
 11
0.433419622962401
 21
3.9697873696031
 31
0.0
  0
ARC
  8
3
  6
CONTINUOUS
 62
3
 10
0.4388516583677
 20
3.9899691185698
 30
0.0
 40
0.0208999999999999
 50
254.935515392369
 51
343.519740879615
  0
ARC
  8
3
  6
CONTINUOUS
 62
3
 10
1.25
 20
3.74999999999998
 30
0.0
 40
0.825000000000036
 50
158.58552227828
 51
163.519740879615
  0
ARC
  8
3
  6
CONTINUOUS
 62
3
 10
0.4624979012098
 20
4.0588482708401
 30
0.0
 40
0.0209000000000009
 50
338.585522278277
 51
67.1697477655247
  0
LINE
  8
3
  6
CONTINUOUS
 62
3
 10
0.4706071488026
 20
4.078110931702
 30
0.0
 11
0.4272281696103
 21
4.0963727328683
 31
0.0
  0
ARC
  8
3
  6
CONTINUOUS
 62
3
 10
0.466367046329298
 20
4.1893367172869
 30
0.0
 40
0.100867011801614
 50
224.244084138862
 51
247.16836323605
  0
LINE
  8
3
  6
CONTINUOUS
 62
3
 10
0.3941085428932
 20
4.118960139145
 30
0.0
 11
0.363938621762829
 21
4.1480248953932
 31
0.0
  0
ARC
  8
3
  6
CONTINUOUS
 62
3
 10
0.556739534430201
 20
4.3356730473391
 30
0.0
 40
0.269042786288951
 50
214.921342492631
 51
224.224039642876
  0
ARC
  8
3
  6
CONTINUOUS
 62
3
 10
1.69014586921281
 20
5.12783320125998
 30
0.0
 40
1.65183978828846
 50
213.690073619676
 51
214.945719548614
  0
ARC
  8
3
  6
CONTINUOUS
 62
3
 10
0.328801999152879
 20
4.220270412085
 30
0.0
 40
0.0157079632679491
 50
152.955745989249
 51
213.690073619675
  0
ARC
  8
3
  6
CONTINUOUS
 62
3
 10
1.25
 20
3.74999999999999
 30
0.0
 40
1.04999999999992
 50
150.202148747591
 51
152.95574598925
  0
ARC
  8
3
  6
CONTINUOUS
 62
3
 10
0.35245782545438
 20
4.2639825504424
 30
0.0
 40
0.015707963267948
 50
89.4678211171637
 51
150.20214874759
  0
ARC
  8
3
  6
CONTINUOUS
 62
3
 10
0.33726120373912
 20
2.62792130112022
 30
0.0
 40
1.65183978828845
 50
88.2121751882284
 51
89.4678211171664
  0
ARC
  8
3
  6
CONTINUOUS
 62
3
 10
0.380516622803387
 20
4.0100416279756
 30
0.0
 40
0.269042786288952
 50
78.9338550939632
 51
88.2365522442083
  0
LINE
  8
3
  6
CONTINUOUS
 62
3
 10
0.4321572612527
 20
4.2740819001211
 30
0.0
 11
0.4729906836755
 21
4.2647215683952
 31
0.0
  0
ARC
  8
3
  6
CONTINUOUS
 62
3
 10
0.453595426963299
 20
4.1657368317594
 30
0.0
 40
0.10086701180162
 50
55.9895315007904
 51
78.9138105979785
  0
LINE
  8
3
  6
CONTINUOUS
 62
3
 10
0.510014821871799
 20
4.2493490673948
 30
0.0
 11
0.5490290424114
 21
4.2230218986658
 31
0.0
  0
ARC
  8
3
  6
CONTINUOUS
 62
3
 10
0.560719758332401
 20
4.2403463657933
 30
0.0
 40
0.0208999999999999
 50
235.988146971314
 51
324.57237245856
  0
ARC
  8
3
  6
CONTINUOUS
 62
3
 10
1.25000000000009
 20
3.74999999999999
 30
0.0
 40
0.825000000000054
 50
139.638153857227
 51
144.572372458563
  0
ARC
  8
3
  6
CONTINUOUS
 62
3
 10
0.6054498066953
 20
4.2978155331048
 30
0.0
 40
0.0208999999999991
 50
319.638153857226
 51
48.2223793444738
  0
LINE
  8
3
  6
CONTINUOUS
 62
3
 10
0.6193742486431
 20
4.3134014214799
 30
0.0
 11
0.584275259341199
 21
4.3447588794059
 31
0.0
  0
ARC
  8
3
  6
CONTINUOUS
 62
3
 10
0.651478840158603
 20
4.4199774462302
 30
0.0
 40
0.100867011801619
 50
205.296715717807
 51
228.220994814995
  0
LINE
  8
3
  6
CONTINUOUS
 62
3
 10
0.560284264182199
 20
4.376876362923
 30
0.0
 11
0.5411863435227
 21
4.4141624678854
 31
0.0
  0
ARC
  8
3
  6
CONTINUOUS
 62
3
 10
0.784470026273199
 20
4.5290409713638
 30
0.0
 40
0.269042786288959
 50
195.973974071579
 51
205.276671221824
  0
ARC
  8
3
  6
CONTINUOUS
 62
3
 10
2.11367926106639
 20
4.91026326783328
 30
0.0
 40
1.65183978828832
 50
194.742705198624
 51
195.998351127562
  0
ARC
  8
3
  6
CONTINUOUS
 62
3
 10
0.531411600965299
 20
4.4939023659191
 30
0.0
 40
0.0157079632679497
 50
134.008377568198
 51
194.742705198624
  0
ARC
  8
3
  6
CONTINUOUS
 62
3
 10
1.25000000000001
 20
3.74999999999999
 30
0.0
 40
1.05000000000001
 50
131.254780326538
 51
134.008377568196
  0
ARC
  8
3
  6
CONTINUOUS
 62
3
 10
0.5679789974704
 20
4.5275650258054
 30
0.0
 40
0.0157079632679488
 50
70.5204526961114
 51
131.254780326537
  0
ARC
  8
3
  6
CONTINUOUS
 62
3
 10
0.0223775513952288
 20
2.98508442272311
 30
0.0
 40
1.65183978828837
 50
69.2648067671746
 51
70.5204526961126
  0
ARC
  8
3
  6
CONTINUOUS
 62
3
 10
0.512063009050097
 20
4.2782726463573
 30
0.0
 40
0.269042786288953
 50
59.9864866729141
 51
69.2891838231592
  0
LINE
  8
3
  6
CONTINUOUS
 62
3
 10
0.6466393514822
 20
4.511238800362
 30
0.0
 11
0.682221011704399
 21
4.489127046641
 31
0.0
  0
ARC
  8
3
  6
CONTINUOUS
 62
3
 10
0.631736352053798
 20
4.4018032056252
 30
0.0
 40
0.100867011801617
 50
37.0421630797375
 51
59.9664421769257
  0
LINE
  8
3
  6
CONTINUOUS
 62
3
 10
0.7122476370544
 20
4.4625657521267
 30
0.0
 11
0.7405995418003
 21
4.424997165317
 31
0.0
  0
ARC
  8
3
  6
CONTINUOUS
 62
3
 10
0.7572820677668
 20
4.4375869757753
 30
0.0
 40
0.0209000000000011
 50
217.040778550264
 51
305.62500403751
  0
ARC
  8
3
  6
CONTINUOUS
 62
3
 10
1.25
 20
3.75
 30
0.0
 40
0.824999999999986
 50
120.690785436175
 51
125.625004037511
  0
ARC
  8
3
  6
CONTINUOUS
 62
3
 10
0.818248726852202
 20
4.4774184821238
 30
0.0
 40
0.0208999999999976
 50
300.690785436173
 51
29.2750109234196
  0
LINE
  8
3
  6
CONTINUOUS
 62
3
 10
0.83647943381
 20
4.4876386251667
 30
0.0
 11
0.8134639545061
 21
4.528693672725
 31
0.0
  0
ARC
  8
3
  6
CONTINUOUS
 62
3
 10
0.901449688669401
 20
4.5780157231034
 30
0.0
 40
0.100867011801619
 50
186.349347296755
 51
209.273626393943
  0
LINE
  8
3
  6
CONTINUOUS
 62
3
 10
0.8012013874893
 20
4.5668608057893
 30
0.0
 11
0.7952450233389
 21
4.6083277314396
 31
0.0
  0
ARC
  8
3
  6
CONTINUOUS
 62
3
 10
1.0626479142113
 20
4.6379877180751
 30
0.0
 40
0.269042786288961
 50
177.026605650528
 51
186.329302800773
  0
ARC
  8
3
  6
CONTINUOUS
 62
3
 10
2.4436196036191
 20
4.56696080599719
 30
0.0
 40
1.65183978828843
 50
175.795336777568
 51
177.050982706506
  0
ARC
  8
3
  6
CONTINUOUS
 62
3
 10
0.811891405860999
 20
4.6869209555714
 30
0.0
 40
0.0157079632679481
 50
115.061009147146
 51
175.795336777572
  0
ARC
  8
3
  6
CONTINUOUS
 62
3
 10
1.25000000000001
 20
3.75
 30
0.0
 40
1.04999999999999
 50
112.307411905486
 51
115.061009147145
  0
ARC
  8
3
  6
CONTINUOUS
 62
3
 10
0.857407727756699
 20
4.706886265458
 30
0.0
 40
0.0157079632679485
 50
51.5730842750583
 51
112.307411905484
  0
ARC
  8
3
  6
CONTINUOUS
 62
3
 10
-0.159474160117301
 20
3.42513801601171
 30
0.0
 40
1.65183978828838
 50
50.3174383461249
 51
51.573084275063
  0
ARC
  8
3
  6
CONTINUOUS
 62
3
 10
0.723576318538498
 20
4.4892571265115
 30
0.0
 40
0.269042786288968
 50
41.0391182518569
 51
50.3418154021021
  0
LINE
  8
3
  6
CONTINUOUS
 62
3
 10
0.9265049300837
 20
4.6659036647466
 30
0.0
 11
0.9529790031138
 21
4.6334366406455
 31
0.0
  0
ARC
  8
3
  6
CONTINUOUS
 62
3
 10
0.8768757367482
 20
4.5672365883928
 30
0.0
 40
0.100867011801618
 50
18.094794658687
 51
41.0190737558751
  0
LINE
  8
3
  6
CONTINUOUS
 62
3
 10
0.972754264849799
 20
4.5985648810188
 30
0.0
 11
0.987371484997599
 21
4.5538260154459
 31
0.0
  0
ARC
  8
3
  6
CONTINUOUS
 62
3
 10
1.007238010465
 20
4.5603168679208
 30
0.0
 40
0.0208999999999995
 50
198.093410129211
 51
286.677635616457
  0
ARC
  8
3
  6
CONTINUOUS
 62
3
 10
1.24999999999998
 20
3.75
 30
0.0
 40
0.825000000000026
 50
101.743417015121
 51
106.677635616455
  0
ARC
  8
3
  6
CONTINUOUS
 62
3
 10
1.0778345967658
 20
4.5781943515439
 30
0.0
 40
0.0209000000000006
 50
281.74341701512
 51
10.327642502366
  0
LINE
  8
3
  6
CONTINUOUS
 62
3
 10
1.0983959887562
 20
4.5819412381742
 30
0.0
 11
1.0899581037549
 21
4.6282449239271
 31
0.0
  0
ARC
  8
3
  6
CONTINUOUS
 62
3
 10
1.1891913717282
 20
4.6463256483906
 30
0.0
 40
0.100867011801617
 50
167.401978875704
 51
190.326257972892
  0
LINE
  8
3
  6
CONTINUOUS
 62
3
 10
1.0907528042899
 20
4.668325705447
 30
0.0
 11
1.0985834611269
 21
4.7094798669655
 31
0.0
  0
ARC
  8
3
  6
CONTINUOUS
 62
3
 10
1.3611283077117
 20
4.65070721698381
 30
0.0
 40
0.269042786288957
 50
158.079237229478
 51
167.381934379723
  0
ARC
  8
3
  6
CONTINUOUS
 62
3
 10
2.64421274120299
 20
4.1351279643783
 30
0.0
 40
1.65183978828837
 50
156.847968356513
 51
158.103614285451
  0
ARC
  8
3
  6
CONTINUOUS
 62
3
 10
1.1398470748869
 20
4.7784096218611
 30
0.0
 40
0.0157079632679488
 50
96.1136407260954
 51
156.847968356521
  0
ARC
  8
3
  6
CONTINUOUS
 62
3
 10
1.24999999999997
 20
3.75000000000001
 30
0.0
 40
1.04999999999997
 50
93.3600434844326
 51
96.1136407260911
  0
ARC
  8
3
  6
CONTINUOUS
 62
3
 10
1.1893799224373
 20
4.782514030628
 30
0.0
 40
0.0157079632679491
 50
32.6257158540076
 51
93.3600434844331
  0
ARC
  8
3
  6
CONTINUOUS
 62
3
 10
-0.188587476136204
 20
3.90039544601872
 30
0.0
 40
1.65183978828831
 50
31.3700699250709
 51
32.6257158540089
  0
ARC
  8
3
  6
CONTINUOUS
 62
3
 10
0.9921358022182
 20
4.620131626252
 30
0.0
 40
0.269042786288954
 50
22.0917498308072
 51
31.3944469810522
  0
LINE
  8
3
  6
CONTINUOUS
 62
3
 10
1.2414262190539
 20
4.7213161553463
 30
0.0
 11
1.2559238282915
 21
4.6820121667042
 31
0.0
  0
ARC
  8
3
  6
CONTINUOUS
 62
3
 10
1.1624489249854
 20
4.6441097060758
 30
0.0
 40
0.100867011801616
 50
359.147426237633
 51
22.0717053348218
  0
LINE
  8
3
  6
CONTINUOUS
 62
3
 10
1.2633047699595
 20
4.6426088382118
 30
0.0
 11
1.2626033028967
 21
4.5955478441556
 31
0.0
  0
ARC
  8
3
  6
CONTINUOUS
 62
3
 10
1.2835009815698
 20
4.5952363540655
 30
0.0
 40
0.0209000000000006
 50
179.146041708158
 51
267.730267195403
  0
ARC
  8
3
  6
CONTINUOUS
 62
3
 10
1.24999999999998
 20
3.75
 30
0.0
 40
0.825000000000021
 50
82.7960485940686
 51
87.7302671954039
  0
ARC
  8
3
  6
CONTINUOUS
 62
3
 10
1.3560772595414
 20
4.5892225122149
 30
0.0
 40
0.0209000000000011
 50
262.796048594063
 51
351.380274081309
  0
LINE
  8
3
  6
CONTINUOUS
 62
3
 10
1.3767411906992
 20
4.5860901091271
 30
0.0
 11
1.3837952757678
 21
4.6326247102476
 31
0.0
  0
ARC
  8
3
  6
CONTINUOUS
 62
3
 10
1.4835226132033
 20
4.6175047817492
 30
0.0
 40
0.100867011801619
 50
148.45461045465
 51
171.378889551838
  0
LINE
  8
3
  6
CONTINUOUS
 62
3
 10
1.3975611257206
 20
4.6702757656281
 30
0.0
 11
1.4183302303714
 21
4.7066574710415
 31
0.0
  0
ARC
  8
3
  6
CONTINUOUS
 62
3
 10
1.6475662247382
 20
4.5658211130199
 30
0.0
 40
0.269042786288964
 50
139.131868808419
 51
148.434565958664
  0
ARC
  8
3
  6
CONTINUOUS
 62
3
 10
2.69372129483811
 20
3.6615605319432
 30
0.0
 40
1.65183978828831
 50
137.900599935464
 51
139.156245864403
  0
ARC
  8
3
  6
CONTINUOUS
 62
3
 10
1.4797395225475
 20
4.7584541482026
 30
0.0
 40
0.0157079632679477
 50
77.1662723050376
 51
137.900599935464
  0
ARC
  8
3
  6
CONTINUOUS
 62
3
 10
1.24999999999999
 20
3.75000000000001
 30
0.0
 40
1.05000000000004
 50
74.4126750633809
 51
77.1662723050395
  0
ARC
  8
3
  6
CONTINUOUS
 62
3
 10
1.5279212431393
 20
4.7462528794735
 30
0.0
 40
0.0157079632679483
 50
13.6783474329555
 51
74.412675063381
  0
ARC
  8
3
  6
CONTINUOUS
 62
3
 10
-0.061807517131237
 20
4.35935519582372
 30
0.0
 40
1.6518397882884
 50
12.4227015040172
 51
13.6783474329552
  0
ARC
  8
3
  6
CONTINUOUS
 62
3
 10
1.2886388729029
 20
4.6567138628048
 30
0.0
 40
0.269042786288959
 50
3.14438140975397
 51
12.447078559999
  0
LINE
  8
3
  6
CONTINUOUS
 62
3
 10
1.5572766102255
 20
4.6714714689912
 30
0.0
 11
1.5582267147562
 21
4.6295897128417
 31
0.0
  0
ARC
  8
3
  6
CONTINUOUS
 62
3
 10
1.4575096306953
 20
4.6240921635639
 30
0.0
 40
0.100867011801622
 50
340.200057816582
 51
3.12433691377194
  0
LINE
  8
3
  6
CONTINUOUS
 62
3
 10
1.5524134967993
 20
4.5899247775314
 30
0.0
 11
1.5364693573665
 21
4.5456414439244
 31
0.0
  0
ARC
  8
3
  6
CONTINUOUS
 62
3
 10
1.5561336015001
 20
4.5385613660538
 30
0.0
 40
0.0209
 50
160.198673287107
 51
248.782898774353
  0
ARC
  8
3
  6
CONTINUOUS
 62
3
 10
1.24999999999998
 20
3.75
 30
0.0
 40
0.825
 50
63.8486801730148
 51
68.7828987743503
  0
ARC
  8
3
  6
CONTINUOUS
 62
3
 10
1.6228248052874
 20
4.5093078918084
 30
0.0
 40
0.0208999999999994
 50
243.848680173018
 51
332.432905660264
  0
LINE
  8
3
  6
CONTINUOUS
 62
3
 10
1.6413520180379
 20
4.4996356434814
 30
0.0
 11
1.6631336536036
 21
4.5413584138794
 31
0.0
  0
ARC
  8
3
  6
CONTINUOUS
 62
3
 10
1.7525480560612
 20
4.4946763112818
 30
0.0
 40
0.100867011801619
 50
129.5072420336
 51
152.431521130788
  0
LINE
  8
3
  6
CONTINUOUS
 62
3
 10
1.6883789095327
 20
4.5724996670536
 30
0.0
 11
1.7198358072426
 21
4.6001663940601
 31
0.0
  0
ARC
  8
3
  6
CONTINUOUS
 62
3
 10
1.8909216724388
 20
4.3925281326914
 30
0.0
 40
0.269042786288957
 50
120.184500387367
 51
129.487197537612
  0
ARC
  8
3
  6
CONTINUOUS
 62
3
 10
2.58678024453339
 20
3.1975768881516
 30
0.0
 40
1.65183978828836
 50
118.953231514409
 51
120.208877443347
  0
ARC
  8
3
  6
CONTINUOUS
 62
3
 10
1.7947361281641
 20
4.629217019808
 30
0.0
 40
0.01570796326795
 50
58.2189038839883
 51
118.953231514413
  0
ARC
  8
3
  6
CONTINUOUS
 62
3
 10
1.24999999999999
 20
3.75000000000011
 30
0.0
 40
1.04999999999998
 50
55.4653066423271
 51
58.2189038839857
  0
ARC
  8
3
  6
CONTINUOUS
 62
3
 10
1.8363454847547
 20
4.602032270372
 30
0.0
 40
0.0157079632679481
 50
354.730979011902
 51
55.4653066423275
  0
ARC
  8
3
  6
CONTINUOUS
 62
3
 10
0.207127141145839
 20
4.75228185504119
 30
0.0
 40
1.6518397882884
 50
353.475333082964
 51
354.730979011902
  0
ARC
  8
3
  6
CONTINUOUS
 62
3
 10
1.5809548221647
 20
4.5950395832075
 30
0.0
 40
0.269042786288954
 50
344.1970129887
 51
353.499710138945
  0
LINE
  8
3
  6
CONTINUOUS
 62
3
 10
1.8398288127912
 20
4.5217710508679
 30
0.0
 11
1.8271284540467
 21
4.4818500653522
 31
0.0
  0
ARC
  8
3
  6
CONTINUOUS
 62
3
 10
1.7300834480757
 20
4.5093531721925
 30
0.0
 40
0.10086701180162
 50
321.252689395528
 51
344.176968492716
  0
LINE
  8
3
  6
CONTINUOUS
 62
3
 10
1.8087510288321
 20
4.4462218344297
 30
0.0
 11
1.7792920119356
 21
4.409514947595
 31
0.0
  0
ARC
  8
3
  6
CONTINUOUS
 62
3
 10
1.7955918955557
 20
4.3964335182399
 30
0.0
 40
0.0208999999999998
 50
141.25130486605
 51
229.835530353296
  0
ARC
  8
3
  6
CONTINUOUS
 62
3
 10
1.25
 20
3.75000000000001
 30
0.0
 40
0.825000000000012
 50
44.9013117519635
 51
49.8355303532989
  0
ARC
  8
3
  6
CONTINUOUS
 62
3
 10
1.8491709984076
 20
4.3471104794486
 30
0.0
 40
0.0208999999999998
 50
224.901311751962
 51
313.485537239208
  0
LINE
  8
3
  6
CONTINUOUS
 62
3
 10
1.8635537817699
 20
4.331946524069
 30
0.0
 11
1.8977025896423
 21
4.3643361541763
 31
0.0
  0
ARC
  8
3
  6
CONTINUOUS
 62
3
 10
1.9671146192083
 20
4.2911506076434
 30
0.0
 40
0.10086701180162
 50
110.559873612547
 51
133.484152709735
  0
LINE
  8
3
  6
CONTINUOUS
 62
3
 10
1.9316915363473
 20
4.3855929671565
 30
0.0
 11
1.9704273841453
 21
4.4015465965914
 31
0.0
  0
ARC
  8
3
  6
CONTINUOUS
 62
3
 10
2.06482331200609
 20
4.1496072593346
 30
0.0
 40
0.269042786288961
 50
101.237131966311
 51
110.539829116557
  0
ARC
  8
3
  6
CONTINUOUS
 62
3
 10
2.33497831245086
 20
2.79345686025661
 30
0.0
 40
1.65183978828834
 50
100.005863093358
 51
101.261509022296
  0
ARC
  8
3
  6
CONTINUOUS
 62
3
 10
2.0507021218423
 20
4.4047030848596
 30
0.0
 40
0.0157079632679473
 50
39.2715354629345
 51
100.00586309336
  0
ARC
  8
3
  6
CONTINUOUS
 62
3
 10
1.25
 20
3.75000000000001
 30
0.0
 40
1.04999999999999
 50
36.517938221276
 51
39.2715354629346
  0
ARC
  8
3
  6
CONTINUOUS
 62
3
 10
2.0812300950093
 20
4.3654807441328
 30
0.0
 40
0.0157079632679499
 50
335.78361059085
 51
36.5179382212755
  0
ARC
  8
3
  6
CONTINUOUS
 62
3
 10
0.589073255519492
 20
5.03659572325959
 30
0.0
 40
1.65183978828836
 50
334.527964661909
 51
335.783610590847
  0
ARC
  8
3
  6
CONTINUOUS
 62
3
 10
1.8374066811517
 20
4.44179215262961
 30
0.0
 40
0.269042786288966
 50
325.249644567645
 51
334.55234171789
  0
LINE
  8
3
  6
CONTINUOUS
 62
3
 10
2.0584639113541
 20
4.2884372641213
 30
0.0
 11
2.0334893702707
 21
4.2548031074579
 31
0.0
  0
ARC
  8
3
  6
CONTINUOUS
 62
3
 10
1.9506327745949
 20
4.3123264820357
 30
0.0
 40
0.100867011801619
 50
302.305320974473
 51
325.229600071661
  0
LINE
  8
3
  6
CONTINUOUS
 62
3
 10
2.0045392169753
 20
4.2270724525727
 30
0.0
 11
1.9647576641998
 21
4.2019197732648
 31
0.0
  0
ARC
  8
3
  6
CONTINUOUS
 62
3
 10
1.9759268419973
 20
4.1842545682752
 30
0.0
 40
0.0209
 50
122.303936445001
 51
210.888161932247
  0
ARC
  8
3
  6
CONTINUOUS
 62
3
 10
1.25
 20
3.75
 30
0.0
 40
0.824999999999994
 50
25.9539433309109
 51
30.8881619322463
  0
ARC
  8
3
  6
CONTINUOUS
 62
3
 10
2.0105877167544
 20
4.1202068815168
 30
0.0
 40
0.0209000000000001
 50
205.953943330911
 51
294.538168818157
  0
LINE
  8
3
  6
CONTINUOUS
 62
3
 10
2.0192674729793
 20
4.101194468943
 30
0.0
 11
2.0620828999521
 21
4.1207410397607
 31
0.0
  0
ARC
  8
3
  6
CONTINUOUS
 62
3
 10
2.1039706861844
 20
4.0289828388501
 30
0.0
 40
0.100867011801617
 50
91.6125051914942
 51
114.536784288683
  0
LINE
  8
3
  6
CONTINUOUS
 62
3
 10
2.1011323076646
 20
4.129809907027
 30
0.0
 11
2.1429494753933
 21
4.1323216155951
 31
0.0
  0
ARC
  8
3
  6
CONTINUOUS
 62
3
 10
2.1504262024313
 20
3.8633827388834
 30
0.0
 40
0.269042786288955
 50
82.2897635452637
 51
91.5924606955088
  0
ARC
  8
3
  6
CONTINUOUS
 62
3
 10
1.96560214504115
 20
2.49299312384874
 30
0.0
 40
1.65183978828837
 50
81.0584946723026
 51
82.3141406012406
  0
ARC
  8
3
  6
CONTINUOUS
 62
3
 10
2.2198996164453
 20
4.1092419119016
 30
0.0
 40
0.015707963267949
 50
20.3241670418795
 51
81.058494672305
  0
ARC
  8
3
  6
CONTINUOUS
 62
3
 10
1.25000000000009
 20
3.75000000000001
 30
0.0
 40
1.04999999999993
 50
17.5705698002222
 51
20.3241670418809
  0
ARC
  8
3
  6
CONTINUOUS
 62
3
 10
2.2360380266059
 20
4.062232329099
 30
0.0
 40
0.0157079632679485
 50
316.836242169796
 51
17.5705698002222
  0
ARC
  8
3
  6
CONTINUOUS
 62
3
 10
1.0426410379926
 20
5.18148698127311
 30
0.0
 40
1.65183978828838
 50
315.580596240861
 51
316.836242169799
  0
ARC
  8
3
  6
CONTINUOUS
 62
3
 10
2.0302039116823
 20
4.213578308053
 30
0.0
 40
0.269042786288961
 50
306.302276146598
 51
315.604973296843
  0
LINE
  8
3
  6
CONTINUOUS
 62
3
 10
2.1894894005116
 20
3.9967554450922
 30
0.0
 11
2.1549470561356
 21
3.9730529000434
 31
0.0
  0
ARC
  8
3
  6
CONTINUOUS
 62
3
 10
2.0952576685491
 20
4.0543629921558
 30
0.0
 40
0.100867011801619
 50
283.357952553418
 51
306.282231650606
  0
LINE
  8
3
  6
CONTINUOUS
 62
3
 10
2.1185613730771
 20
3.9562248679377
 30
0.0
 11
2.07276823294
 21
3.9453520792437
 31
0.0
  0
ARC
  8
3
  6
CONTINUOUS
 62
3
 10
2.077596351193
 20
3.925017397684
 30
0.0
 40
0.0208999999999989
 50
103.356568023947
 51
191.940793511193
  0
ARC
  8
3
  6
CONTINUOUS
 62
3
 10
1.24999999999999
 20
3.75000000000001
 30
0.0
 40
0.825000000000008
 50
7.00657490985747
 51
11.940793511193
  0
ARC
  8
3
  6
CONTINUOUS
 62
3
 10
2.0895829542564
 20
3.8531856236211
 30
0.0
 40
0.0208999999999999
 50
187.006574909859
 51
275.590800397105
  0
LINE
  8
3
  6
CONTINUOUS
 62
3
 10
2.0916190970767
 20
3.8323850437634
 30
0.0
 11
2.1384614272877
 21
3.836970381047
 31
0.0
  0
ARC
  8
3
  6
CONTINUOUS
 62
3
 10
2.148285778592
 20
3.7365829506025
 30
0.0
 40
0.100867011801621
 50
72.6651367704389
 51
95.589415867627
  0
LINE
  8
3
  6
CONTINUOUS
 62
3
 10
2.178339686768
 20
3.8328685501133
 30
0.0
 11
2.2187066354437
 21
3.8216661552178
 31
0.0
  0
ARC
  8
3
  6
CONTINUOUS
 62
3
 10
2.138453942271
 20
3.5648714393597
 30
0.0
 40
0.269042786288958
 50
63.3423951242094
 51
72.6450922744545
  0
ARC
  8
3
  6
CONTINUOUS
 62
3
 10
1.51867938150509
 20
2.32874558694331
 30
0.0
 40
1.65183978828835
 50
62.1111262512552
 51
63.3667721801932
  0
ARC
  8
3
  6
CONTINUOUS
 62
3
 10
2.2839934380633
 20
3.7748513035764
 30
0.0
 40
0.0157079632679486
 50
1.37679862082389
 51
62.1111262512494
  0
ARC
  8
3
  6
CONTINUOUS
 62
3
 10
1.24999999999999
 20
3.75
 30
0.0
 40
1.04999999999998
 50
358.62320137917
 51
1.37679862083031
  0
ARC
  8
3
  6
CONTINUOUS
 62
3
 10
2.2839934380633
 20
3.7251486964236
 30
0.0
 40
0.0157079632679487
 50
297.88887374875
 51
358.623201379175
  0
ARC
  8
3
  6
CONTINUOUS
 62
3
 10
1.5186793815051
 20
5.17125441305688
 30
0.0
 40
1.6518397882884
 50
296.633227819805
 51
297.888873748743
  0
ARC
  8
3
  6
CONTINUOUS
 62
3
 10
2.138453942271
 20
3.9351285606403
 30
0.0
 40
0.269042786288956
 50
287.354907725543
 51
296.657604875788
  0
LINE
  8
3
  6
CONTINUOUS
 62
3
 10
2.2187066354437
 20
3.6783338447822
 30
0.0
 11
2.178339686768
 21
3.6671314498868
 31
0.0
  0
ARC
  8
3
  6
CONTINUOUS
 62
3
 10
2.148285778592
 20
3.7634170493975
 30
0.0
 40
0.100867011801625
 50
264.410584132369
 51
287.334863229557
  0
LINE
  8
3
  6
CONTINUOUS
 62
3
 10
2.1384614272877
 20
3.6630296189531
 30
0.0
 11
2.0916190970767
 21
3.6676149562366
 31
0.0
  0
ARC
  8
3
  6
CONTINUOUS
 62
3
 10
2.0895829542564
 20
3.646814376379
 30
0.0
 40
0.0209000000000002
 50
84.4091996028922
 51
172.993425090138
  0
ARC
  8
3
  6
CONTINUOUS
 62
3
 10
1.25000000000001
 20
3.75000000000002
 30
0.0
 40
0.825000000000006
 50
348.059206488804
 51
352.993425090139
  0
ARC
  8
3
  6
CONTINUOUS
 62
3
 10
2.077596351193
 20
3.5749826023161
 30
0.0
 40
0.0208999999999992
 50
168.0592064888
 51
256.643431976046
  0
LINE
  8
3
  6
CONTINUOUS
 62
3
 10
2.07276823294
 20
3.5546479207564
 30
0.0
 11
2.1185613730771
 21
3.5437751320624
 31
0.0
  0
ARC
  8
3
  6
CONTINUOUS
 62
3
 10
2.0952576685491
 20
3.4456370078442
 30
0.0
 40
0.100867011801621
 50
53.7177683493902
 51
76.6420474465783
  0
LINE
  8
3
  6
CONTINUOUS
 62
3
 10
2.1549470561356
 20
3.5269470999567
 30
0.0
 11
2.1894894005116
 21
3.5032445549078
 31
0.0
  0
ARC
  8
3
  6
CONTINUOUS
 62
3
 10
2.0302039116822
 20
3.286421691947
 30
0.0
 40
0.269042786288958
 50
44.3950267031566
 51
53.6977238534017
  0
ARC
  8
3
  6
CONTINUOUS
 62
3
 10
1.04264103799277
 20
2.31851301872691
 30
0.0
 40
1.65183978828829
 50
43.1637578302037
 51
44.4194037591418
  0
ARC
  8
3
  6
CONTINUOUS
 62
3
 10
2.2360380266059
 20
3.437767670901
 30
0.0
 40
0.0157079632679499
 50
342.429430199769
 51
43.1637578301963
  0
ARC
  8
3
  6
CONTINUOUS
 62
3
 10
1.25000000000011
 20
3.75000000000001
 30
0.0
 40
1.04999999999993
 50
339.675832958118
 51
342.429430199777
  0
ARC
  8
3
  6
CONTINUOUS
 62
3
 10
2.2198996164453
 20
3.3907580880985
 30
0.0
 40
0.0157079632679491
 50
278.941505327694
 51
339.675832958118
  0
ARC
  8
3
  6
CONTINUOUS
 62
3
 10
1.96560214504139
 20
5.00700687615149
 30
0.0
 40
1.65183978828848
 50
277.685859398751
 51
278.941505327689
  0
ARC
  8
3
  6
CONTINUOUS
 62
3
 10
2.1504262024313
 20
3.6366172611166
 30
0.0
 40
0.269042786288957
 50
268.407539304488
 51
277.710236454733
  0
LINE
  8
3
  6
CONTINUOUS
 62
3
 10
2.1429494753933
 20
3.367678384405
 30
0.0
 11
2.1011323076646
 21
3.370190092973
 31
0.0
  0
ARC
  8
3
  6
CONTINUOUS
 62
3
 10
2.1039706861844
 20
3.47101716115
 30
0.0
 40
0.10086701180162
 50
245.463215711314
 51
268.387494808502
  0
LINE
  8
3
  6
CONTINUOUS
 62
3
 10
2.0620828999521
 20
3.3792589602394
 30
0.0
 11
2.0192674729793
 21
3.3988055310571
 31
0.0
  0
ARC
  8
3
  6
CONTINUOUS
 62
3
 10
2.0105877167544
 20
3.3797931184832
 30
0.0
 40
0.0209000000000003
 50
65.4618311818428
 51
154.046056669088
  0
ARC
  8
3
  6
CONTINUOUS
 62
3
 10
1.25000000000001
 20
3.75000000000002
 30
0.0
 40
0.825000000000005
 50
329.111838067753
 51
334.046056669088
  0
ARC
  8
3
  6
CONTINUOUS
 62
3
 10
1.9759268419973
 20
3.3157454317249
 30
0.0
 40
0.0208999999999987
 50
149.111838067753
 51
237.696063554999
  0
LINE
  8
3
  6
CONTINUOUS
 62
3
 10
1.9647576641998
 20
3.2980802267352
 30
0.0
 11
2.0045392169753
 21
3.2729275474274
 31
0.0
  0
ARC
  8
3
  6
CONTINUOUS
 62
3
 10
1.9506327745949
 20
3.1876735179644
 30
0.0
 40
0.10086701180162
 50
34.7703999283368
 51
57.6946790255248
  0
LINE
  8
3
  6
CONTINUOUS
 62
3
 10
2.0334893702707
 20
3.2451968925421
 30
0.0
 11
2.0584639113541
 21
3.2115627358788
 31
0.0
  0
ARC
  8
3
  6
CONTINUOUS
 62
3
 10
1.8374066811517
 20
3.0582078473705
 30
0.0
 40
0.269042786288965
 50
25.4476582821058
 51
34.7503554323509
  0
ARC
  8
3
  6
CONTINUOUS
 62
3
 10
0.589073255519497
 20
2.46340427674061
 30
0.0
 40
1.65183978828827
 50
24.2163894091504
 51
25.4720353380885
  0
ARC
  8
3
  6
CONTINUOUS
 62
3
 10
2.0812300950093
 20
3.1345192558673
 30
0.0
 40
0.0157079632679498
 50
323.482061778724
 51
24.2163894091501
  0
ARC
  8
3
  6
CONTINUOUS
 62
3
 10
1.24999999999999
 20
3.75000000000003
 30
0.0
 40
1.05000000000005
 50
320.728464537063
 51
323.482061778721
  0
ARC
  8
3
  6
CONTINUOUS
 62
3
 10
2.0507021218423
 20
3.0952969151404
 30
0.0
 40
0.0157079632679492
 50
259.994136906637
 51
320.728464537063
  0
ARC
  8
3
  6
CONTINUOUS
 62
3
 10
2.33497831245109
 20
4.70654313974342
 30
0.0
 40
1.65183978828829
 50
258.738490977699
 51
259.994136906637
  0
ARC
  8
3
  6
CONTINUOUS
 62
3
 10
2.06482331200621
 20
3.35039274066549
 30
0.0
 40
0.269042786288958
 50
249.460170883436
 51
258.762868033682
  0
LINE
  8
3
  6
CONTINUOUS
 62
3
 10
1.9704273841453
 20
3.0984534034086
 30
0.0
 11
1.9316915363473
 21
3.1144070328435
 31
0.0
  0
ARC
  8
3
  6
CONTINUOUS
 62
3
 10
1.9671146192083
 20
3.2088493923566
 30
0.0
 40
0.10086701180162
 50
226.515847290265
 51
249.440126387453
  0
LINE
  8
3
  6
CONTINUOUS
 62
3
 10
1.8977025896423
 20
3.1356638458237
 30
0.0
 11
1.8635537817699
 21
3.1680534759311
 31
0.0
  0
ARC
  8
3
  6
CONTINUOUS
 62
3
 10
1.8491709984076
 20
3.1528895205515
 30
0.0
 40
0.0208999999999999
 50
46.5144627607914
 51
135.098688248037
  0
ARC
  8
3
  6
CONTINUOUS
 62
3
 10
1.25
 20
3.75000000000002
 30
0.0
 40
0.825000000000029
 50
310.164469646698
 51
315.098688248034
  0
ARC
  8
3
  6
CONTINUOUS
 62
3
 10
1.7955918955557
 20
3.1035664817602
 30
0.0
 40
0.0208999999999998
 50
130.164469646702
 51
218.748695133948
  0
LINE
  8
3
  6
CONTINUOUS
 62
3
 10
1.7792920119356
 20
3.0904850524051
 30
0.0
 11
1.8087510288321
 21
3.0537781655704
 31
0.0
  0
ARC
  8
3
  6
CONTINUOUS
 62
3
 10
1.7300834480757
 20
2.9906468278075
 30
0.0
 40
0.100867011801621
 50
15.8230315072829
 51
38.747310604471
  0
LINE
  8
3
  6
CONTINUOUS
 62
3
 10
1.8271284540467
 20
3.0181499346479
 30
0.0
 11
1.8398288127912
 21
2.9782289491322
 31
0.0
  0
ARC
  8
3
  6
CONTINUOUS
 62
3
 10
1.5809548221647
 20
2.9049604167925
 30
0.0
 40
0.269042786288958
 50
6.50028986105147
 51
15.8029870112966
  0
ARC
  8
3
  6
CONTINUOUS
 62
3
 10
0.207127141145828
 20
2.74771814495891
 30
0.0
 40
1.65183978828841
 50
5.26902098809699
 51
6.52466691703501
  0
ARC
  8
3
  6
CONTINUOUS
 62
3
 10
1.8363454847547
 20
2.8979677296281
 30
0.0
 40
0.0157079632679483
 50
304.534693357665
 51
5.26902098809165
  0
ARC
  8
3
  6
CONTINUOUS
 62
3
 10
1.25
 20
3.75000000000002
 30
0.0
 40
1.05
 50
301.781096116011
 51
304.53469335767
  0
ARC
  8
3
  6
CONTINUOUS
 62
3
 10
1.7947361281641
 20
2.870782980192
 30
0.0
 40
0.0157079632679498
 50
241.046768485586
 51
301.781096116012
  0
ARC
  8
3
  6
CONTINUOUS
 62
3
 10
2.58678024453358
 20
4.30242311184841
 30
0.0
 40
1.65183978828833
 50
239.791122556646
 51
241.046768485584
  0
ARC
  8
3
  6
CONTINUOUS
 62
3
 10
1.8909216724388
 20
3.1074718673087
 30
0.0
 40
0.269042786288969
 50
230.512802462383
 51
239.815499612628
  0
LINE
  8
3
  6
CONTINUOUS
 62
3
 10
1.7198358072426
 20
2.89983360594
 30
0.0
 11
1.6883789095327
 21
2.9275003329464
 31
0.0
  0
ARC
  8
3
  6
CONTINUOUS
 62
3
 10
1.7525480560612
 20
3.0053236887183
 30
0.0
 40
0.100867011801619
 50
207.568478869211
 51
230.492757966399
  0
LINE
  8
3
  6
CONTINUOUS
 62
3
 10
1.6631336536036
 20
2.9586415861207
 30
0.0
 11
1.6413520180379
 21
3.0003643565187
 31
0.0
  0
ARC
  8
3
  6
CONTINUOUS
 62
3
 10
1.6228248052874
 20
2.9906921081917
 30
0.0
 40
0.0209000000000011
 50
27.5670943397334
 51
116.151319826979
  0
ARC
  8
3
  6
CONTINUOUS
 62
3
 10
1.25000000000002
 20
3.75
 30
0.0
 40
0.825000000000014
 50
291.217101225646
 51
296.151319826982
  0
ARC
  8
3
  6
CONTINUOUS
 62
3
 10
1.5561336015001
 20
2.9614386339463
 30
0.0
 40
0.0208999999999995
 50
111.217101225649
 51
199.801326712895
  0
LINE
  8
3
  6
CONTINUOUS
 62
3
 10
1.5364693573665
 20
2.9543585560757
 30
0.0
 11
1.5524134967993
 21
2.9100752224687
 31
0.0
  0
ARC
  8
3
  6
CONTINUOUS
 62
3
 10
1.4575096306953
 20
2.87590783643611
 30
0.0
 40
0.100867011801625
 50
356.875663086227
 51
19.7999421834166
  0
LINE
  8
3
  6
CONTINUOUS
 62
3
 10
1.5582267147562
 20
2.8704102871583
 30
0.0
 11
1.5572766102255
 21
2.8285285310089
 31
0.0
  0
ARC
  8
3
  6
CONTINUOUS
 62
3
 10
1.2886388729029
 20
2.8432861371953
 30
0.0
 40
0.26904278628896
 50
347.55292144
 51
356.855618590245
  0
ARC
  8
3
  6
CONTINUOUS
 62
3
 10
-0.0618075171312053
 20
3.14064480417641
 30
0.0
 40
1.65183978828838
 50
346.321652567044
 51
347.577298495982
  0
ARC
  8
3
  6
CONTINUOUS
 62
3
 10
1.5279212431393
 20
2.7537471205265
 30
0.0
 40
0.0157079632679487
 50
285.587324936618
 51
346.321652567043
  0
ARC
  8
3
  6
CONTINUOUS
 62
3
 10
1.25
 20
3.75
 30
0.0
 40
1.04999999999999
 50
282.83372769496
 51
285.587324936619
  0
ARC
  8
3
  6
CONTINUOUS
 62
3
 10
1.4797395225475
 20
2.7415458517974
 30
0.0
 40
0.0157079632679479
 50
222.099400064531
 51
282.833727694956
  0
ARC
  8
3
  6
CONTINUOUS
 62
3
 10
2.6937212948382
 20
3.83843946805679
 30
0.0
 40
1.65183978828832
 50
220.843754135594
 51
222.099400064532
  0
ARC
  8
3
  6
CONTINUOUS
 62
3
 10
1.6475662247382
 20
2.9341788869802
 30
0.0
 40
0.269042786288957
 50
211.565434041333
 51
220.868131191578
  0
LINE
  8
3
  6
CONTINUOUS
 62
3
 10
1.4183302303714
 20
2.7933425289586
 30
0.0
 11
1.3975611257206
 21
2.8297242343719
 31
0.0
  0
ARC
  8
3
  6
CONTINUOUS
 62
3
 10
1.4835226132033
 20
2.8824952182508
 30
0.0
 40
0.100867011801617
 50
188.621110448159
 51
211.545389545347
  0
LINE
  8
3
  6
CONTINUOUS
 62
3
 10
1.3837952757678
 20
2.8673752897524
 30
0.0
 11
1.3767411906992
 21
2.9139098908729
 31
0.0
  0
ARC
  8
3
  6
CONTINUOUS
 62
3
 10
1.3560772595414
 20
2.9107774877852
 30
0.0
 40
0.0209000000000003
 50
8.6197259186861
 51
97.203951405932
  0
ARC
  8
3
  6
CONTINUOUS
 62
3
 10
1.25000000000002
 20
3.75
 30
0.0
 40
0.824999999999989
 50
272.269732804592
 51
277.203951405928
  0
ARC
  8
3
  6
CONTINUOUS
 62
3
 10
1.2835009815698
 20
2.9047636459346
 30
0.0
 40
0.0209000000000015
 50
92.2697328045937
 51
180.853958291839
  0
LINE
  8
3
  6
CONTINUOUS
 62
3
 10
1.2626033028967
 20
2.9044521558445
 30
0.0
 11
1.2633047699595
 21
2.8573911617883
 31
0.0
  0
ARC
  8
3
  6
CONTINUOUS
 62
3
 10
1.1624489249854
 20
2.8558902939243
 30
0.0
 40
0.100867011801618
 50
337.92829466518
 51
0.85257376236885
  0
LINE
  8
3
  6
CONTINUOUS
 62
3
 10
1.2559238282915
 20
2.8179878332958
 30
0.0
 11
1.2414262190539
 21
2.7786838446538
 31
0.0
  0
ARC
  8
3
  6
CONTINUOUS
 62
3
 10
0.992135802218202
 20
2.8798683737481
 30
0.0
 40
0.269042786288955
 50
328.605553018947
 51
337.908250169192
  0
ARC
  8
3
  6
CONTINUOUS
 62
3
 10
-0.188587476136204
 20
3.59960455398148
 30
0.0
 40
1.65183978828835
 50
327.37428414599
 51
328.629930074928
  0
ARC
  8
3
  6
CONTINUOUS
 62
3
 10
1.1893799224373
 20
2.7174859693721
 30
0.0
 40
0.015707963267949
 50
266.639956515566
 51
327.374284145992
  0
ARC
  8
3
  6
CONTINUOUS
 62
3
 10
1.25
 20
3.74999999999998
 30
0.0
 40
1.04999999999994
 50
263.886359273905
 51
266.639956515565
  0
ARC
  8
3
  6
CONTINUOUS
 62
3
 10
1.1398470748869
 20
2.721590378139
 30
0.0
 40
0.0157079632679495
 50
203.152031643488
 51
263.886359273912
  0
ARC
  8
3
  6
CONTINUOUS
 62
3
 10
2.64421274120311
 20
3.3648720356215
 30
0.0
 40
1.65183978828831
 50
201.896385714543
 51
203.152031643481
  0
ARC
  8
3
  6
CONTINUOUS
 62
3
 10
1.3611283077117
 20
2.8492927830162
 30
0.0
 40
0.269042786288965
 50
192.618065620281
 51
201.920762770526
  0
LINE
  8
3
  6
CONTINUOUS
 62
3
 10
1.0985834611269
 20
2.7905201330346
 30
0.0
 11
1.0907528042899
 21
2.831674294553
 31
0.0
  0
ARC
  8
3
  6
CONTINUOUS
 62
3
 10
1.1891913717282
 20
2.8536743516095
 30
0.0
 40
0.100867011801617
 50
169.673742027108
 51
192.598021124296
  0
LINE
  8
3
  6
CONTINUOUS
 62
3
 10
1.0899581037549
 20
2.8717550760729
 30
0.0
 11
1.0983959887562
 21
2.9180587618259
 31
0.0
  0
ARC
  8
3
  6
CONTINUOUS
 62
3
 10
1.0778345967658
 20
2.9218056484561
 30
0.0
 40
0.0208999999999996
 50
349.67235749763
 51
78.2565829848774
  0
ARC
  8
3
  6
CONTINUOUS
 62
3
 10
1.25000000000002
 20
3.75
 30
0.0
 40
0.82500000000002
 50
253.32236438354
 51
258.256582984875
  0
ARC
  8
3
  6
CONTINUOUS
 62
3
 10
1.007238010465
 20
2.9396831320792
 30
0.0
 40
0.0209000000000011
 50
73.3223643835442
 51
161.90658987079
  0
LINE
  8
3
  6
CONTINUOUS
 62
3
 10
0.987371484997599
 20
2.9461739845541
 30
0.0
 11
0.972754264849799
 21
2.9014351189812
 31
0.0
  0
ARC
  8
3
  6
CONTINUOUS
 62
3
 10
0.876875736748199
 20
2.9327634116073
 30
0.0
 40
0.100867011801618
 50
318.980926244124
 51
341.905205341312
  0
LINE
  8
3
  6
CONTINUOUS
 62
3
 10
0.9529790031138
 20
2.8665633593545
 30
0.0
 11
0.9265049300837
 21
2.8340963352535
 31
0.0
  0
ARC
  8
3
  6
CONTINUOUS
 62
3
 10
0.723576318538505
 20
3.0107428734886
 30
0.0
 40
0.269042786288961
 50
309.658184597896
 51
318.96088174814
  0
ARC
  8
3
  6
CONTINUOUS
 62
3
 10
-0.159474160117224
 20
4.07486198398821
 30
0.0
 40
1.65183978828831
 50
308.426915724938
 51
309.682561653876
  0
ARC
  8
3
  6
CONTINUOUS
 62
3
 10
0.8574077277567
 20
2.793113734542
 30
0.0
 40
0.0157079632679484
 50
247.692588094514
 51
308.42691572494
  0
ARC
  8
3
  6
CONTINUOUS
 62
3
 10
1.25000000000002
 20
3.74999999999996
 30
0.0
 40
1.04999999999998
 50
244.938990852854
 51
247.692588094513
  0
ARC
  8
3
  6
CONTINUOUS
 62
3
 10
0.811891405860999
 20
2.8130790444286
 30
0.0
 40
0.015707963267948
 50
184.204663222427
 51
244.938990852853
  0
ARC
  8
3
  6
CONTINUOUS
 62
3
 10
2.4436196036191
 20
2.93303919400279
 30
0.0
 40
1.65183978828842
 50
182.94901729349
 51
184.204663222429
  0
ARC
  8
3
  6
CONTINUOUS
 62
3
 10
1.0626479142113
 20
2.862012281925
 30
0.0
 40
0.26904278628895
 50
173.670697199229
 51
182.973394349474
  0
LINE
  8
3
  6
CONTINUOUS
 62
3
 10
0.7952450233389
 20
2.8916722685604
 30
0.0
 11
0.8012013874893
 21
2.9331391942107
 31
0.0
  0
ARC
  8
3
  6
CONTINUOUS
 62
3
 10
0.9014496886694
 20
2.9219842768966
 30
0.0
 40
0.100867011801621
 50
150.726373606054
 51
173.650652703242
  0
LINE
  8
3
  6
CONTINUOUS
 62
3
 10
0.8134639545061
 20
2.971306327275
 30
0.0
 11
0.83647943381
 21
3.0123613748333
 31
0.0
  0
ARC
  8
3
  6
CONTINUOUS
 62
3
 10
0.8182487268522
 20
3.0225815178763
 30
0.0
 40
0.0209
 50
330.724989076577
 51
59.3092145638242
  0
ARC
  8
3
  6
CONTINUOUS
 62
3
 10
1.25
 20
3.75
 30
0.0
 40
0.825000000000006
 50
234.374995962489
 51
239.309214563824
  0
ARC
  8
3
  6
CONTINUOUS
 62
3
 10
0.757282067766801
 20
3.0624130242247
 30
0.0
 40
0.0208999999999999
 50
54.3749959624898
 51
142.959221449736
  0
LINE
  8
3
  6
CONTINUOUS
 62
3
 10
0.7405995418003
 20
3.0750028346831
 30
0.0
 11
0.7122476370544
 21
3.0374342478734
 31
0.0
  0
ARC
  8
3
  6
CONTINUOUS
 62
3
 10
0.6317363520538
 20
3.0981967943748
 30
0.0
 40
0.100867011801617
 50
300.033557823074
 51
322.957836920262
  0
LINE
  8
3
  6
CONTINUOUS
 62
3
 10
0.682221011704399
 20
3.010872953359
 30
0.0
 11
0.6466393514822
 21
2.9887611996381
 31
0.0
  0
ARC
  8
3
  6
CONTINUOUS
 62
3
 10
0.512063009050099
 20
3.22172735364271
 30
0.0
 40
0.26904278628897
 50
290.710816176841
 51
300.013513327086
  0
ARC
  8
3
  6
CONTINUOUS
 62
3
 10
0.0223775513953522
 20
4.514915577277
 30
0.0
 40
1.65183978828838
 50
289.479547303884
 51
290.735193232822
  0
ARC
  8
3
  6
CONTINUOUS
 62
3
 10
0.5679789974704
 20
2.9724349741946
 30
0.0
 40
0.0157079632679486
 50
228.745219673462
 51
289.479547303888
  0
ARC
  8
3
  6
CONTINUOUS
 62
3
 10
1.25
 20
3.74999999999999
 30
0.0
 40
1.04999999999999
 50
225.991622431802
 51
228.745219673461
  0
ARC
  8
3
  6
CONTINUOUS
 62
3
 10
0.531411600965299
 20
3.0060976340809
 30
0.0
 40
0.0157079632679496
 50
165.257294801375
 51
225.991622431801
  0
ARC
  8
3
  6
CONTINUOUS
 62
3
 10
2.11367926106639
 20
2.58973673216668
 30
0.0
 40
1.65183978828835
 50
164.001648872437
 51
165.257294801375
  0
ARC
  8
3
  6
CONTINUOUS
 62
3
 10
0.784470026273198
 20
2.9709590286362
 30
0.0
 40
0.269042786288958
 50
154.723328778176
 51
164.026025928421
  0
LINE
  8
3
  6
CONTINUOUS
 62
3
 10
0.5411863435227
 20
3.0858375321147
 30
0.0
 11
0.560284264182199
 21
3.1231236370771
 31
0.0
  0
ARC
  8
3
  6
CONTINUOUS
 62
3
 10
0.6514788401586
 20
3.0800225537698
 30
0.0
 40
0.100867011801616
 50
131.779005185003
 51
154.703284282191
  0
LINE
  8
3
  6
CONTINUOUS
 62
3
 10
0.584275259341199
 20
3.1552411205941
 30
0.0
 11
0.6193742486431
 21
3.1865985785201
 31
0.0
  0
ARC
  8
3
  6
CONTINUOUS
 62
3
 10
0.6054498066953
 20
3.2021844668952
 30
0.0
 40
0.020899999999999
 50
311.777620655525
 51
40.3618461427727
  0
ARC
  8
3
  6
CONTINUOUS
 62
3
 10
1.25000000000002
 20
3.75
 30
0.0
 40
0.824999999999997
 50
215.427627541436
 51
220.361846142771
  0
ARC
  8
3
  6
CONTINUOUS
 62
3
 10
0.560719758332401
 20
3.2596536342067
 30
0.0
 40
0.0208999999999998
 50
35.4276275414391
 51
124.011853028685
  0
LINE
  8
3
  6
CONTINUOUS
 62
3
 10
0.5490290424114
 20
3.2769781013343
 30
0.0
 11
0.510014821871799
 21
3.2506509326052
 31
0.0
  0
ARC
  8
3
  6
CONTINUOUS
 62
3
 10
0.453595426963302
 20
3.3342631682406
 30
0.0
 40
0.10086701180162
 50
281.086189402021
 51
304.010468499209
  0
LINE
  8
3
  6
CONTINUOUS
 62
3
 10
0.4729906836755
 20
3.2352784316048
 30
0.0
 11
0.4525739724641
 21
3.23059826574185
 31
0.0
  0
ARC
  8
3
  6
CONTINUOUS
 62
3
 10
1.57390713921708
 20
1.43700787400996
 30
0.0
 40
0.0649999999955235
 50
254.999999994852
 51
5.14377114192496E-9
  0
ARC
  8
3
  6
CONTINUOUS
 62
3
 10
1.5739071392126
 20
1.4370078740158
 30
0.0
 40
0.0650000000000031
 50
359.999999999997
 51
180
  0
ARC
  8
3
  6
CONTINUOUS
 62
3
 10
1.5739071392088
 20
1.43700787401288
 30
0.0
 40
0.0649999999962012
 50
179.999999997426
 51
255.000000002569
  0
ARC
  8
3
  6
CONTINUOUS
 62
3
 10
1.57390713921337
 20
1.06299212597846
 30
0.0
 40
0.0649999999992327
 50
194.999999994852
 51
5.14374569748751E-9
  0
ARC
  8
3
  6
CONTINUOUS
 62
3
 10
1.5739071392126
 20
1.0629921259843
 30
0.0
 40
0.0650000000000013
 50
359.999999999997
 51
180
  0
ARC
  8
3
  6
CONTINUOUS
 62
3
 10
1.57390713919044
 20
1.06299212598138
 30
0.0
 40
0.0649999999778424
 50
179.999999997426
 51
195.000000002569
  0
ARC
  8
3
  6
CONTINUOUS
 62
3
 10
1.24999999999776
 20
0.875984251971419
 30
0.0
 40
0.0649999999977619
 50
74.9999999974261
 51
180.000000002572
  0
ARC
  8
3
  6
CONTINUOUS
 62
3
 10
1.25
 20
0.875984251968498
 30
0.0
 40
0.0650000000000013
 50
179.999999999997
 51
359.999999999997
  0
ARC
  8
3
  6
CONTINUOUS
 62
3
 10
1.25000000000761
 20
0.875984251974337
 30
0.0
 40
0.0649999999923961
 50
359.999999994854
 51
75.0000000051426
  0
ARC
  8
3
  6
CONTINUOUS
 62
3
 10
1.24999999999138
 20
1.25000000000862
 30
0.0
 40
0.127952755896894
 50
89.9999999961409
 51
180.000000003858
  0
ARC
  8
3
  6
CONTINUOUS
 62
3
 10
1.25
 20
1.25
 30
0.0
 40
0.127952755905511
 50
179.999999999998
 51
359.999999999998
  0
ARC
  8
3
  6
CONTINUOUS
 62
3
 10
1.25000000000862
 20
1.25000000000862
 30
0.0
 40
0.127952755896894
 50
359.99999999614
 51
90.0000000038578
  0
ARC
  8
3
  6
CONTINUOUS
 62
3
 10
1.25000000000077
 20
1.62401574802566
 30
0.0
 40
0.0649999999992327
 50
194.999999994852
 51
5.14374569748751E-9
  0
ARC
  8
3
  6
CONTINUOUS
 62
3
 10
1.25
 20
1.6240157480315
 30
0.0
 40
0.0650000000000013
 50
359.999999999997
 51
180
  0
ARC
  8
3
  6
CONTINUOUS
 62
3
 10
1.24999999997784
 20
1.62401574802858
 30
0.0
 40
0.0649999999778424
 50
179.999999997426
 51
195.000000002569
  0
ARC
  8
3
  6
CONTINUOUS
 62
3
 10
0.926092860791879
 20
1.43700787400996
 30
0.0
 40
0.0649999999955217
 50
254.999999994851
 51
5.14377114192496E-9
  0
ARC
  8
3
  6
CONTINUOUS
 62
3
 10
0.926092860787399
 20
1.4370078740158
 30
0.0
 40
0.0650000000000013
 50
359.999999999997
 51
180
  0
ARC
  8
3
  6
CONTINUOUS
 62
3
 10
0.926092860783597
 20
1.43700787401288
 30
0.0
 40
0.0649999999961995
 50
179.999999997426
 51
255.000000002569
  0
ARC
  8
3
  6
CONTINUOUS
 62
3
 10
0.926092860789818
 20
1.06299212597846
 30
0.0
 40
0.0649999999975832
 50
224.999999994852
 51
5.14378386414369E-9
  0
ARC
  8
3
  6
CONTINUOUS
 62
3
 10
0.926092860787399
 20
1.0629921259843
 30
0.0
 40
0.0650000000000013
 50
359.999999999997
 51
180
  0
ARC
  8
3
  6
CONTINUOUS
 62
3
 10
0.926092860780356
 20
1.06299212598138
 30
0.0
 40
0.0649999999929584
 50
179.999999997426
 51
225.000000002569
  0
LINE
  8
3
  6
CONTINUOUS
 62
3
 10
0.4525739724641
 20
0.73059826574185
 30
0.0
 11
0.4321572612527
 21
0.7259180998789
 31
0.0
  0
ARC
  8
3
  6
CONTINUOUS
 62
3
 10
0.380516622803401
 20
0.9899583720244
 30
0.0
 40
0.269042786288953
 50
271.763447755789
 51
281.066144906034
  0
ARC
  8
3
  6
CONTINUOUS
 62
3
 10
0.337261203739259
 20
2.37207869887978
 30
0.0
 40
1.65183978828846
 50
270.53217888283
 51
271.787824811768
  0
ARC
  8
3
  6
CONTINUOUS
 62
3
 10
0.35245782545438
 20
0.736017449557701
 30
0.0
 40
0.0157079632679467
 50
209.797851252407
 51
270.532178882832
  0
ARC
  8
3
  6
CONTINUOUS
 62
3
 10
1.2500000000001
 20
1.25
 30
0.0
 40
1.05000000000004
 50
207.044254010748
 51
209.797851252407
  0
ARC
  8
3
  6
CONTINUOUS
 62
3
 10
0.328801999152879
 20
0.779729587915099
 30
0.0
 40
0.0157079632679493
 50
146.309926380325
 51
207.04425401075
  0
ARC
  8
3
  6
CONTINUOUS
 62
3
 10
1.69014586921272
 20
-0.127833201259927
 30
0.0
 40
1.65183978828839
 50
145.054280451386
 51
146.309926380324
  0
ARC
  8
3
  6
CONTINUOUS
 62
3
 10
0.556739534430298
 20
0.664326952660888
 30
0.0
 40
0.269042786288966
 50
135.775960357123
 51
145.078657507368
  0
LINE
  8
3
  6
CONTINUOUS
 62
3
 10
0.363938621762829
 20
0.8519751046069
 30
0.0
 11
0.3941085428932
 21
0.8810398608551
 31
0.0
  0
ARC
  8
3
  6
CONTINUOUS
 62
3
 10
0.466367046329299
 20
0.810663282713199
 30
0.0
 40
0.100867011801615
 50
112.831636763949
 51
135.755915861137
  0
LINE
  8
3
  6
CONTINUOUS
 62
3
 10
0.4272281696103
 20
0.9036272671317
 30
0.0
 11
0.4706071488026
 21
0.9218890682981
 31
0.0
  0
ARC
  8
3
  6
CONTINUOUS
 62
3
 10
0.4624979012098
 20
0.9411517291599
 30
0.0
 40
0.0209000000000011
 50
292.830252234474
 51
21.4144777217208
  0
ARC
  8
3
  6
CONTINUOUS
 62
3
 10
1.25
 20
1.25
 30
0.0
 40
0.824999999999976
 50
196.480259120385
 51
201.41447772172
  0
ARC
  8
3
  6
CONTINUOUS
 62
3
 10
0.4388516583677
 20
1.0100308814302
 30
0.0
 40
0.0208999999999998
 50
16.4802591203845
 51
105.06448460763
  0
LINE
  8
3
  6
CONTINUOUS
 62
3
 10
0.433419622962401
 20
1.0302126303969
 30
0.0
 11
0.3879708827925
 21
1.0179798369885
 31
0.0
  0
ARC
  8
3
  6
CONTINUOUS
 62
3
 10
0.36175729485159
 20
1.1153810786492
 30
0.0
 40
0.100867011801616
 50
262.138820980968
 51
285.063100078156
  0
LINE
  8
3
  6
CONTINUOUS
 62
3
 10
0.347961371612159
 20
1.0154619785143
 30
0.0
 11
0.306301121903999
 21
1.0198674059664
 31
0.0
  0
ARC
  8
3
  6
CONTINUOUS
 62
3
 10
0.34319225190053
 20
1.2863689357589
 30
0.0
 40
0.269042786288965
 50
252.816079334735
 51
262.11877648498
  0
ARC
  8
3
  6
CONTINUOUS
 62
3
 10
0.75105426725952
 20
2.60764718261389
 30
0.0
 40
1.6518397882884
 50
251.584810461781
 51
252.840456390719
  0
ARC
  8
3
  6
CONTINUOUS
 62
3
 10
0.234199274852181
 20
1.0552979095222
 30
0.0
 40
0.0157079632679493
 50
190.850482831352
 51
251.584810461777
  0
ARC
  8
3
  6
CONTINUOUS
 62
3
 10
1.24999999999999
 20
1.24999999999999
 30
0.0
 40
1.04999999999997
 50
188.096885589696
 51
190.850482831355
  0
ARC
  8
3
  6
CONTINUOUS
 62
3
 10
0.22601849459199
 20
1.1043226378959
 30
0.0
 40
0.0157079632679484
 50
127.362557959272
 51
188.096885589697
  0
ARC
  8
3
  6
CONTINUOUS
 62
3
 10
1.21891584286299
 20
-0.196093528045214
 30
0.0
 40
1.65183978828838
 50
126.106912030334
 51
127.362557959272
  0
ARC
  8
3
  6
CONTINUOUS
 62
3
 10
0.404134571076198
 20
0.921161639018399
 30
0.0
 40
0.269042786288955
 50
116.828591936072
 51
126.131289086317
  0
LINE
  8
3
  6
CONTINUOUS
 62
3
 10
0.28270939899385
 20
1.1612448505075
 30
0.0
 11
0.320681941506059
 21
1.1789386407159
 31
0.0
  0
ARC
  8
3
  6
CONTINUOUS
 62
3
 10
0.3661740423483
 20
1.0889129619862
 30
0.0
 40
0.100867011801624
 50
93.8842683428946
 51
116.808547440083
  0
LINE
  8
3
  6
CONTINUOUS
 62
3
 10
0.359341174322561
 20
1.1895482738023
 30
0.0
 11
0.406299357915399
 21
1.1927354686916
 31
0.0
  0
ARC
  8
3
  6
CONTINUOUS
 62
3
 10
0.4048840674822
 20
1.2135874938448
 30
0.0
 40
0.0209000000000004
 50
273.882883813421
 51
2.46710930066799
  0
ARC
  8
3
  6
CONTINUOUS
 62
3
 10
1.25
 20
1.25
 30
0.0
 40
0.824999999999978
 50
177.532890699332
 51
182.467109300668
  0
ARC
  8
3
  6
CONTINUOUS
 62
3
 10
0.4048840674822
 20
1.2864125061553
 30
0.0
 40
0.0209000000000006
 50
357.532890699331
 51
86.1171161865774
  0
LINE
  8
3
  6
CONTINUOUS
 62
3
 10
0.406299357915399
 20
1.3072645313085
 30
0.0
 11
0.359341174322561
 21
1.3104517261977
 31
0.0
  0
ARC
  8
3
  6
CONTINUOUS
 62
3
 10
0.3661740423483
 20
1.4110870380139
 30
0.0
 40
0.100867011801621
 50
243.191452559916
 51
266.115731657104
  0
LINE
  8
3
  6
CONTINUOUS
 62
3
 10
0.320681941506059
 20
1.3210613592842
 30
0.0
 11
0.28270939899385
 21
1.3387551494926
 31
0.0
  0
ARC
  8
3
  6
CONTINUOUS
 62
3
 10
0.4041345710762
 20
1.5788383609816
 30
0.0
 40
0.269042786288954
 50
233.868710913682
 51
243.171408063927
  0
ARC
  8
3
  6
CONTINUOUS
 62
3
 10
1.21891584286297
 20
2.69609352804522
 30
0.0
 40
1.65183978828835
 50
232.637442040727
 51
233.893087969665
  0
ARC
  8
3
  6
CONTINUOUS
 62
3
 10
0.22601849459199
 20
1.3956773621042
 30
0.0
 40
0.0157079632679483
 50
171.903114410302
 51
232.637442040727
  0
ARC
  8
3
  6
CONTINUOUS
 62
3
 10
1.25
 20
1.25
 30
0.0
 40
1.04999999999997
 50
169.149517168644
 51
171.903114410303
  0
ARC
  8
3
  6
CONTINUOUS
 62
3
 10
0.234199274852181
 20
1.4447020904779
 30
0.0
 40
0.0157079632679494
 50
108.415189538222
 51
169.149517168647
  0
ARC
  8
3
  6
CONTINUOUS
 62
3
 10
0.751054267259467
 20
-0.107647182613876
 30
0.0
 40
1.65183978828841
 50
107.159543609281
 51
108.415189538219
  0
ARC
  8
3
  6
CONTINUOUS
 62
3
 10
0.343192251900506
 20
1.2136310642412
 30
0.0
 40
0.269042786288958
 50
97.8812235150146
 51
107.18392066526
  0
LINE
  8
3
  6
CONTINUOUS
 62
3
 10
0.306301121903999
 20
1.4801325940336
 30
0.0
 11
0.347961371612159
 21
1.4845380214857
 31
0.0
  0
ARC
  8
3
  6
CONTINUOUS
 62
3
 10
0.361757294851588
 20
1.3846189213509
 30
0.0
 40
0.100867011801616
 50
74.9368999218435
 51
97.8611790190317
  0
LINE
  8
3
  6
CONTINUOUS
 62
3
 10
0.3879708827925
 20
1.4820201630116
 30
0.0
 11
0.433419622962401
 21
1.4697873696031
 31
0.0
  0
ARC
  8
3
  6
CONTINUOUS
 62
3
 10
0.4388516583677
 20
1.4899691185698
 30
0.0
 40
0.0208999999999998
 50
254.935515392368
 51
343.519740879614
  0
ARC
  8
3
  6
CONTINUOUS
 62
3
 10
1.25
 20
1.24999999999998
 30
0.0
 40
0.825000000000038
 50
158.58552227828
 51
163.519740879615
  0
ARC
  8
3
  6
CONTINUOUS
 62
3
 10
0.4624979012098
 20
1.5588482708401
 30
0.0
 40
0.0209000000000011
 50
338.585522278277
 51
67.1697477655245
  0
LINE
  8
3
  6
CONTINUOUS
 62
3
 10
0.4706071488026
 20
1.578110931702
 30
0.0
 11
0.4272281696103
 21
1.5963727328683
 31
0.0
  0
ARC
  8
3
  6
CONTINUOUS
 62
3
 10
0.466367046329299
 20
1.6893367172869
 30
0.0
 40
0.100867011801615
 50
224.244084138862
 51
247.16836323605
  0
LINE
  8
3
  6
CONTINUOUS
 62
3
 10
0.3941085428932
 20
1.618960139145
 30
0.0
 11
0.363938621762829
 21
1.6480248953932
 31
0.0
  0
ARC
  8
3
  6
CONTINUOUS
 62
3
 10
0.556739534430202
 20
1.8356730473391
 30
0.0
 40
0.269042786288952
 50
214.921342492631
 51
224.224039642876
  0
ARC
  8
3
  6
CONTINUOUS
 62
3
 10
1.69014586921281
 20
2.62783320125998
 30
0.0
 40
1.65183978828846
 50
213.690073619676
 51
214.945719548614
  0
ARC
  8
3
  6
CONTINUOUS
 62
3
 10
0.328801999152879
 20
1.720270412085
 30
0.0
 40
0.0157079632679491
 50
152.955745989249
 51
213.690073619675
  0
ARC
  8
3
  6
CONTINUOUS
 62
3
 10
1.24999999999999
 20
1.24999999999999
 30
0.0
 40
1.04999999999992
 50
150.202148747591
 51
152.95574598925
  0
ARC
  8
3
  6
CONTINUOUS
 62
3
 10
0.35245782545438
 20
1.7639825504424
 30
0.0
 40
0.015707963267948
 50
89.4678211171637
 51
150.20214874759
  0
ARC
  8
3
  6
CONTINUOUS
 62
3
 10
0.337261203739109
 20
0.127921301120224
 30
0.0
 40
1.65183978828845
 50
88.2121751882281
 51
89.4678211171661
  0
ARC
  8
3
  6
CONTINUOUS
 62
3
 10
0.380516622803386
 20
1.5100416279756
 30
0.0
 40
0.269042786288952
 50
78.9338550939629
 51
88.236552244208
  0
LINE
  8
3
  6
CONTINUOUS
 62
3
 10
0.4321572612527
 20
1.7740819001211
 30
0.0
 11
0.4729906836755
 21
1.7647215683952
 31
0.0
  0
ARC
  8
3
  6
CONTINUOUS
 62
3
 10
0.453595426963299
 20
1.6657368317594
 30
0.0
 40
0.10086701180162
 50
55.9895315007901
 51
78.9138105979783
  0
LINE
  8
3
  6
CONTINUOUS
 62
3
 10
0.510014821871799
 20
1.7493490673948
 30
0.0
 11
0.5490290424114
 21
1.7230218986658
 31
0.0
  0
ARC
  8
3
  6
CONTINUOUS
 62
3
 10
0.560719758332401
 20
1.7403463657933
 30
0.0
 40
0.0208999999999998
 50
235.988146971313
 51
324.572372458559
  0
ARC
  8
3
  6
CONTINUOUS
 62
3
 10
1.2500000000001
 20
1.24999999999999
 30
0.0
 40
0.825000000000056
 50
139.638153857227
 51
144.572372458563
  0
ARC
  8
3
  6
CONTINUOUS
 62
3
 10
0.6054498066953
 20
1.7978155331048
 30
0.0
 40
0.0208999999999991
 50
319.638153857226
 51
48.2223793444738
  0
LINE
  8
3
  6
CONTINUOUS
 62
3
 10
0.6193742486431
 20
1.8134014214799
 30
0.0
 11
0.584275259341199
 21
1.8447588794059
 31
0.0
  0
ARC
  8
3
  6
CONTINUOUS
 62
3
 10
0.651478840158604
 20
1.9199774462302
 30
0.0
 40
0.10086701180162
 50
205.296715717807
 51
228.220994814995
  0
LINE
  8
3
  6
CONTINUOUS
 62
3
 10
0.560284264182199
 20
1.876876362923
 30
0.0
 11
0.5411863435227
 21
1.9141624678854
 31
0.0
  0
ARC
  8
3
  6
CONTINUOUS
 62
3
 10
0.7844700262732
 20
2.0290409713638
 30
0.0
 40
0.26904278628896
 50
195.973974071579
 51
205.276671221824
  0
ARC
  8
3
  6
CONTINUOUS
 62
3
 10
2.11367926106642
 20
2.41026326783328
 30
0.0
 40
1.65183978828834
 50
194.742705198624
 51
195.998351127562
  0
ARC
  8
3
  6
CONTINUOUS
 62
3
 10
0.531411600965299
 20
1.9939023659191
 30
0.0
 40
0.0157079632679499
 50
134.008377568198
 51
194.742705198624
  0
ARC
  8
3
  6
CONTINUOUS
 62
3
 10
1.25000000000001
 20
1.25
 30
0.0
 40
1.05000000000001
 50
131.254780326538
 51
134.008377568196
  0
ARC
  8
3
  6
CONTINUOUS
 62
3
 10
0.5679789974704
 20
2.0275650258054
 30
0.0
 40
0.0157079632679488
 50
70.5204526961114
 51
131.254780326537
  0
ARC
  8
3
  6
CONTINUOUS
 62
3
 10
0.0223775513952288
 20
0.485084422723102
 30
0.0
 40
1.65183978828837
 50
69.2648067671746
 51
70.5204526961126
  0
ARC
  8
3
  6
CONTINUOUS
 62
3
 10
0.512063009050097
 20
1.7782726463573
 30
0.0
 40
0.269042786288953
 50
59.9864866729141
 51
69.2891838231592
  0
LINE
  8
3
  6
CONTINUOUS
 62
3
 10
0.6466393514822
 20
2.011238800362
 30
0.0
 11
0.682221011704399
 21
1.989127046641
 31
0.0
  0
ARC
  8
3
  6
CONTINUOUS
 62
3
 10
0.631736352053798
 20
1.9018032056252
 30
0.0
 40
0.100867011801617
 50
37.0421630797375
 51
59.9664421769257
  0
LINE
  8
3
  6
CONTINUOUS
 62
3
 10
0.7122476370544
 20
1.9625657521267
 30
0.0
 11
0.7405995418003
 21
1.924997165317
 31
0.0
  0
ARC
  8
3
  6
CONTINUOUS
 62
3
 10
0.7572820677668
 20
1.9375869757753
 30
0.0
 40
0.0209000000000011
 50
217.040778550263
 51
305.625004037509
  0
ARC
  8
3
  6
CONTINUOUS
 62
3
 10
1.24999999999999
 20
1.25
 30
0.0
 40
0.824999999999985
 50
120.690785436175
 51
125.625004037511
  0
ARC
  8
3
  6
CONTINUOUS
 62
3
 10
0.818248726852202
 20
1.9774184821238
 30
0.0
 40
0.0208999999999976
 50
300.690785436173
 51
29.2750109234196
  0
LINE
  8
3
  6
CONTINUOUS
 62
3
 10
0.83647943381
 20
1.9876386251667
 30
0.0
 11
0.8134639545061
 21
2.028693672725
 31
0.0
  0
ARC
  8
3
  6
CONTINUOUS
 62
3
 10
0.901449688669401
 20
2.0780157231034
 30
0.0
 40
0.100867011801619
 50
186.349347296755
 51
209.273626393943
  0
LINE
  8
3
  6
CONTINUOUS
 62
3
 10
0.8012013874893
 20
2.0668608057893
 30
0.0
 11
0.7952450233389
 21
2.1083277314396
 31
0.0
  0
ARC
  8
3
  6
CONTINUOUS
 62
3
 10
1.0626479142113
 20
2.1379877180751
 30
0.0
 40
0.269042786288961
 50
177.026605650528
 51
186.329302800773
  0
ARC
  8
3
  6
CONTINUOUS
 62
3
 10
2.4436196036191
 20
2.06696080599719
 30
0.0
 40
1.65183978828843
 50
175.795336777568
 51
177.050982706506
  0
ARC
  8
3
  6
CONTINUOUS
 62
3
 10
0.811891405860999
 20
2.1869209555714
 30
0.0
 40
0.0157079632679481
 50
115.061009147146
 51
175.795336777572
  0
ARC
  8
3
  6
CONTINUOUS
 62
3
 10
1.25
 20
1.25
 30
0.0
 40
1.04999999999999
 50
112.307411905486
 51
115.061009147145
  0
ARC
  8
3
  6
CONTINUOUS
 62
3
 10
0.857407727756699
 20
2.206886265458
 30
0.0
 40
0.0157079632679485
 50
51.5730842750583
 51
112.307411905484
  0
ARC
  8
3
  6
CONTINUOUS
 62
3
 10
-0.159474160117301
 20
0.925138016011708
 30
0.0
 40
1.65183978828838
 50
50.3174383461249
 51
51.573084275063
  0
ARC
  8
3
  6
CONTINUOUS
 62
3
 10
0.723576318538498
 20
1.9892571265115
 30
0.0
 40
0.269042786288968
 50
41.0391182518569
 51
50.3418154021021
  0
LINE
  8
3
  6
CONTINUOUS
 62
3
 10
0.9265049300837
 20
2.1659036647466
 30
0.0
 11
0.9529790031138
 21
2.1334366406455
 31
0.0
  0
ARC
  8
3
  6
CONTINUOUS
 62
3
 10
0.8768757367482
 20
2.0672365883928
 30
0.0
 40
0.100867011801618
 50
18.094794658687
 51
41.0190737558751
  0
LINE
  8
3
  6
CONTINUOUS
 62
3
 10
0.972754264849799
 20
2.0985648810188
 30
0.0
 11
0.987371484997599
 21
2.0538260154459
 31
0.0
  0
ARC
  8
3
  6
CONTINUOUS
 62
3
 10
1.007238010465
 20
2.0603168679208
 30
0.0
 40
0.0208999999999996
 50
198.09341012921
 51
286.677635616456
  0
ARC
  8
3
  6
CONTINUOUS
 62
3
 10
1.24999999999999
 20
1.25
 30
0.0
 40
0.825000000000027
 50
101.743417015122
 51
106.677635616456
  0
ARC
  8
3
  6
CONTINUOUS
 62
3
 10
1.0778345967658
 20
2.0781943515439
 30
0.0
 40
0.0209000000000006
 50
281.74341701512
 51
10.327642502366
  0
LINE
  8
3
  6
CONTINUOUS
 62
3
 10
1.0983959887562
 20
2.0819412381742
 30
0.0
 11
1.0899581037549
 21
2.1282449239271
 31
0.0
  0
ARC
  8
3
  6
CONTINUOUS
 62
3
 10
1.1891913717282
 20
2.1463256483906
 30
0.0
 40
0.100867011801617
 50
167.401978875704
 51
190.326257972892
  0
LINE
  8
3
  6
CONTINUOUS
 62
3
 10
1.0907528042899
 20
2.168325705447
 30
0.0
 11
1.0985834611269
 21
2.2094798669655
 31
0.0
  0
ARC
  8
3
  6
CONTINUOUS
 62
3
 10
1.3611283077117
 20
2.15070721698381
 30
0.0
 40
0.269042786288957
 50
158.079237229478
 51
167.381934379723
  0
ARC
  8
3
  6
CONTINUOUS
 62
3
 10
2.64421274120299
 20
1.6351279643783
 30
0.0
 40
1.65183978828837
 50
156.847968356513
 51
158.103614285451
  0
ARC
  8
3
  6
CONTINUOUS
 62
3
 10
1.1398470748869
 20
2.2784096218611
 30
0.0
 40
0.0157079632679488
 50
96.1136407260954
 51
156.847968356521
  0
ARC
  8
3
  6
CONTINUOUS
 62
3
 10
1.24999999999998
 20
1.25000000000001
 30
0.0
 40
1.04999999999997
 50
93.3600434844331
 51
96.1136407260916
  0
ARC
  8
3
  6
CONTINUOUS
 62
3
 10
1.1893799224373
 20
2.282514030628
 30
0.0
 40
0.0157079632679491
 50
32.6257158540076
 51
93.3600434844331
  0
ARC
  8
3
  6
CONTINUOUS
 62
3
 10
-0.188587476136204
 20
1.40039544601872
 30
0.0
 40
1.65183978828831
 50
31.3700699250709
 51
32.6257158540089
  0
ARC
  8
3
  6
CONTINUOUS
 62
3
 10
0.9921358022182
 20
2.120131626252
 30
0.0
 40
0.269042786288954
 50
22.0917498308072
 51
31.3944469810522
  0
LINE
  8
3
  6
CONTINUOUS
 62
3
 10
1.2414262190539
 20
2.2213161553463
 30
0.0
 11
1.2559238282915
 21
2.1820121667042
 31
0.0
  0
ARC
  8
3
  6
CONTINUOUS
 62
3
 10
1.1624489249854
 20
2.1441097060758
 30
0.0
 40
0.100867011801615
 50
359.147426237633
 51
22.0717053348219
  0
LINE
  8
3
  6
CONTINUOUS
 62
3
 10
1.2633047699595
 20
2.1426088382118
 30
0.0
 11
1.2626033028967
 21
2.0955478441556
 31
0.0
  0
ARC
  8
3
  6
CONTINUOUS
 62
3
 10
1.2835009815698
 20
2.0952363540655
 30
0.0
 40
0.0209000000000006
 50
179.146041708158
 51
267.730267195403
  0
ARC
  8
3
  6
CONTINUOUS
 62
3
 10
1.24999999999999
 20
1.25
 30
0.0
 40
0.82500000000002
 50
82.7960485940693
 51
87.7302671954046
  0
ARC
  8
3
  6
CONTINUOUS
 62
3
 10
1.3560772595414
 20
2.0892225122149
 30
0.0
 40
0.0209000000000014
 50
262.796048594065
 51
351.380274081311
  0
LINE
  8
3
  6
CONTINUOUS
 62
3
 10
1.3767411906992
 20
2.0860901091271
 30
0.0
 11
1.3837952757678
 21
2.1326247102476
 31
0.0
  0
ARC
  8
3
  6
CONTINUOUS
 62
3
 10
1.4835226132033
 20
2.1175047817492
 30
0.0
 40
0.100867011801619
 50
148.45461045465
 51
171.378889551838
  0
LINE
  8
3
  6
CONTINUOUS
 62
3
 10
1.3975611257206
 20
2.1702757656281
 30
0.0
 11
1.4183302303714
 21
2.2066574710415
 31
0.0
  0
ARC
  8
3
  6
CONTINUOUS
 62
3
 10
1.6475662247382
 20
2.0658211130199
 30
0.0
 40
0.269042786288964
 50
139.131868808419
 51
148.434565958664
  0
ARC
  8
3
  6
CONTINUOUS
 62
3
 10
2.69372129483809
 20
1.1615605319432
 30
0.0
 40
1.65183978828829
 50
137.900599935464
 51
139.156245864403
  0
ARC
  8
3
  6
CONTINUOUS
 62
3
 10
1.4797395225475
 20
2.2584541482026
 30
0.0
 40
0.015707963267948
 50
77.1662723050406
 51
137.900599935467
  0
ARC
  8
3
  6
CONTINUOUS
 62
3
 10
1.24999999999999
 20
1.25000000000001
 30
0.0
 40
1.05000000000004
 50
74.4126750633809
 51
77.1662723050395
  0
ARC
  8
3
  6
CONTINUOUS
 62
3
 10
1.5279212431393
 20
2.2462528794735
 30
0.0
 40
0.0157079632679483
 50
13.6783474329555
 51
74.412675063381
  0
ARC
  8
3
  6
CONTINUOUS
 62
3
 10
-0.061807517131237
 20
1.85935519582372
 30
0.0
 40
1.6518397882884
 50
12.4227015040172
 51
13.6783474329552
  0
ARC
  8
3
  6
CONTINUOUS
 62
3
 10
1.2886388729029
 20
2.1567138628048
 30
0.0
 40
0.269042786288959
 50
3.14438140975397
 51
12.447078559999
  0
LINE
  8
3
  6
CONTINUOUS
 62
3
 10
1.5572766102255
 20
2.1714714689912
 30
0.0
 11
1.5582267147562
 21
2.1295897128417
 31
0.0
  0
ARC
  8
3
  6
CONTINUOUS
 62
3
 10
1.4575096306953
 20
2.1240921635639
 30
0.0
 40
0.100867011801619
 50
340.200057816582
 51
3.12433691377174
  0
LINE
  8
3
  6
CONTINUOUS
 62
3
 10
1.5524134967993
 20
2.0899247775314
 30
0.0
 11
1.5364693573665
 21
2.0456414439244
 31
0.0
  0
ARC
  8
3
  6
CONTINUOUS
 62
3
 10
1.5561336015001
 20
2.0385613660538
 30
0.0
 40
0.0209
 50
160.198673287107
 51
248.782898774353
  0
ARC
  8
3
  6
CONTINUOUS
 62
3
 10
1.24999999999999
 20
1.25
 30
0.0
 40
0.824999999999997
 50
63.8486801730153
 51
68.7828987743508
  0
ARC
  8
3
  6
CONTINUOUS
 62
3
 10
1.6228248052874
 20
2.0093078918084
 30
0.0
 40
0.0208999999999993
 50
243.848680173017
 51
332.432905660263
  0
LINE
  8
3
  6
CONTINUOUS
 62
3
 10
1.6413520180379
 20
1.9996356434814
 30
0.0
 11
1.6631336536036
 21
2.0413584138794
 31
0.0
  0
ARC
  8
3
  6
CONTINUOUS
 62
3
 10
1.7525480560612
 20
1.9946763112818
 30
0.0
 40
0.100867011801619
 50
129.5072420336
 51
152.431521130788
  0
LINE
  8
3
  6
CONTINUOUS
 62
3
 10
1.6883789095327
 20
2.0724996670536
 30
0.0
 11
1.7198358072426
 21
2.1001663940601
 31
0.0
  0
ARC
  8
3
  6
CONTINUOUS
 62
3
 10
1.8909216724388
 20
1.8925281326914
 30
0.0
 40
0.269042786288955
 50
120.184500387367
 51
129.487197537612
  0
ARC
  8
3
  6
CONTINUOUS
 62
3
 10
2.58678024453339
 20
0.697576888151596
 30
0.0
 40
1.65183978828836
 50
118.953231514409
 51
120.208877443347
  0
ARC
  8
3
  6
CONTINUOUS
 62
3
 10
1.7947361281641
 20
2.129217019808
 30
0.0
 40
0.01570796326795
 50
58.2189038839883
 51
118.953231514413
  0
ARC
  8
3
  6
CONTINUOUS
 62
3
 10
1.24999999999999
 20
1.25000000000011
 30
0.0
 40
1.04999999999998
 50
55.4653066423271
 51
58.2189038839857
  0
ARC
  8
3
  6
CONTINUOUS
 62
3
 10
1.8363454847547
 20
2.102032270372
 30
0.0
 40
0.0157079632679481
 50
354.730979011902
 51
55.4653066423275
  0
ARC
  8
3
  6
CONTINUOUS
 62
3
 10
0.207127141145819
 20
2.25228185504119
 30
0.0
 40
1.65183978828842
 50
353.475333082964
 51
354.730979011902
  0
ARC
  8
3
  6
CONTINUOUS
 62
3
 10
1.5809548221647
 20
2.0950395832075
 30
0.0
 40
0.269042786288954
 50
344.1970129887
 51
353.499710138945
  0
LINE
  8
3
  6
CONTINUOUS
 62
3
 10
1.8398288127912
 20
2.0217710508679
 30
0.0
 11
1.8271284540467
 21
1.9818500653522
 31
0.0
  0
ARC
  8
3
  6
CONTINUOUS
 62
3
 10
1.7300834480757
 20
2.0093531721925
 30
0.0
 40
0.10086701180162
 50
321.252689395528
 51
344.176968492716
  0
LINE
  8
3
  6
CONTINUOUS
 62
3
 10
1.8087510288321
 20
1.9462218344297
 30
0.0
 11
1.7792920119356
 21
1.909514947595
 31
0.0
  0
ARC
  8
3
  6
CONTINUOUS
 62
3
 10
1.7955918955557
 20
1.8964335182399
 30
0.0
 40
0.0208999999999998
 50
141.25130486605
 51
229.835530353296
  0
ARC
  8
3
  6
CONTINUOUS
 62
3
 10
1.25
 20
1.25000000000001
 30
0.0
 40
0.825000000000012
 50
44.9013117519635
 51
49.8355303532989
  0
ARC
  8
3
  6
CONTINUOUS
 62
3
 10
1.8491709984076
 20
1.8471104794486
 30
0.0
 40
0.0208999999999998
 50
224.901311751962
 51
313.485537239208
  0
LINE
  8
3
  6
CONTINUOUS
 62
3
 10
1.8635537817699
 20
1.831946524069
 30
0.0
 11
1.8977025896423
 21
1.8643361541763
 31
0.0
  0
ARC
  8
3
  6
CONTINUOUS
 62
3
 10
1.9671146192083
 20
1.7911506076434
 30
0.0
 40
0.10086701180162
 50
110.559873612547
 51
133.484152709735
  0
LINE
  8
3
  6
CONTINUOUS
 62
3
 10
1.9316915363473
 20
1.8855929671565
 30
0.0
 11
1.9704273841453
 21
1.9015465965914
 31
0.0
  0
ARC
  8
3
  6
CONTINUOUS
 62
3
 10
2.0648233120061
 20
1.6496072593346
 30
0.0
 40
0.269042786288962
 50
101.237131966312
 51
110.539829116558
  0
ARC
  8
3
  6
CONTINUOUS
 62
3
 10
2.3349783124509
 20
0.293456860256606
 30
0.0
 40
1.65183978828835
 50
100.005863093359
 51
101.261509022297
  0
ARC
  8
3
  6
CONTINUOUS
 62
3
 10
2.0507021218423
 20
1.9047030848596
 30
0.0
 40
0.0157079632679473
 50
39.2715354629345
 51
100.00586309336
  0
ARC
  8
3
  6
CONTINUOUS
 62
3
 10
1.24999999999999
 20
1.25000000000001
 30
0.0
 40
1.04999999999999
 50
36.5179382212758
 51
39.2715354629344
  0
ARC
  8
3
  6
CONTINUOUS
 62
3
 10
2.0812300950093
 20
1.8654807441328
 30
0.0
 40
0.0157079632679499
 50
335.78361059085
 51
36.5179382212755
  0
ARC
  8
3
  6
CONTINUOUS
 62
3
 10
0.589073255519501
 20
2.53659572325959
 30
0.0
 40
1.65183978828835
 50
334.527964661909
 51
335.783610590847
  0
ARC
  8
3
  6
CONTINUOUS
 62
3
 10
1.8374066811517
 20
1.94179215262961
 30
0.0
 40
0.269042786288965
 50
325.249644567645
 51
334.55234171789
  0
LINE
  8
3
  6
CONTINUOUS
 62
3
 10
2.0584639113541
 20
1.7884372641213
 30
0.0
 11
2.0334893702707
 21
1.7548031074579
 31
0.0
  0
ARC
  8
3
  6
CONTINUOUS
 62
3
 10
1.9506327745949
 20
1.8123264820357
 30
0.0
 40
0.10086701180162
 50
302.305320974474
 51
325.229600071662
  0
LINE
  8
3
  6
CONTINUOUS
 62
3
 10
2.0045392169753
 20
1.7270724525727
 30
0.0
 11
1.9647576641998
 21
1.7019197732648
 31
0.0
  0
ARC
  8
3
  6
CONTINUOUS
 62
3
 10
1.9759268419973
 20
1.6842545682752
 30
0.0
 40
0.0209
 50
122.303936445001
 51
210.888161932247
  0
ARC
  8
3
  6
CONTINUOUS
 62
3
 10
1.24999999999999
 20
1.25000000000001
 30
0.0
 40
0.824999999999996
 50
25.9539433309108
 51
30.8881619322462
  0
ARC
  8
3
  6
CONTINUOUS
 62
3
 10
2.0105877167544
 20
1.6202068815168
 30
0.0
 40
0.0209000000000002
 50
205.95394333091
 51
294.538168818156
  0
LINE
  8
3
  6
CONTINUOUS
 62
3
 10
2.0192674729793
 20
1.601194468943
 30
0.0
 11
2.0620828999521
 21
1.6207410397607
 31
0.0
  0
ARC
  8
3
  6
CONTINUOUS
 62
3
 10
2.1039706861844
 20
1.5289828388501
 30
0.0
 40
0.100867011801618
 50
91.6125051914945
 51
114.536784288683
  0
LINE
  8
3
  6
CONTINUOUS
 62
3
 10
2.1011323076646
 20
1.629809907027
 30
0.0
 11
2.1429494753933
 21
1.6323216155951
 31
0.0
  0
ARC
  8
3
  6
CONTINUOUS
 62
3
 10
2.1504262024313
 20
1.3633827388834
 30
0.0
 40
0.269042786288955
 50
82.2897635452634
 51
91.5924606955085
  0
ARC
  8
3
  6
CONTINUOUS
 62
3
 10
1.96560214504118
 20
-0.00700687615126806
 30
0.0
 40
1.65183978828837
 50
81.0584946723037
 51
82.3141406012417
  0
ARC
  8
3
  6
CONTINUOUS
 62
3
 10
2.2198996164453
 20
1.6092419119016
 30
0.0
 40
0.015707963267949
 50
20.3241670418795
 51
81.058494672305
  0
ARC
  8
3
  6
CONTINUOUS
 62
3
 10
1.2500000000001
 20
1.25000000000001
 30
0.0
 40
1.04999999999993
 50
17.5705698002223
 51
20.324167041881
  0
ARC
  8
3
  6
CONTINUOUS
 62
3
 10
2.2360380266059
 20
1.562232329099
 30
0.0
 40
0.0157079632679485
 50
316.836242169796
 51
17.5705698002222
  0
ARC
  8
3
  6
CONTINUOUS
 62
3
 10
1.04264103799261
 20
2.68148698127311
 30
0.0
 40
1.65183978828837
 50
315.58059624086
 51
316.836242169798
  0
ARC
  8
3
  6
CONTINUOUS
 62
3
 10
2.0302039116823
 20
1.713578308053
 30
0.0
 40
0.26904278628896
 50
306.302276146598
 51
315.604973296843
  0
LINE
  8
3
  6
CONTINUOUS
 62
3
 10
2.1894894005116
 20
1.4967554450922
 30
0.0
 11
2.1549470561356
 21
1.4730529000434
 31
0.0
  0
ARC
  8
3
  6
CONTINUOUS
 62
3
 10
2.0952576685491
 20
1.5543629921558
 30
0.0
 40
0.10086701180162
 50
283.357952553419
 51
306.282231650607
  0
LINE
  8
3
  6
CONTINUOUS
 62
3
 10
2.1185613730771
 20
1.4562248679377
 30
0.0
 11
2.07276823294
 21
1.4453520792437
 31
0.0
  0
ARC
  8
3
  6
CONTINUOUS
 62
3
 10
2.077596351193
 20
1.425017397684
 30
0.0
 40
0.0208999999999987
 50
103.356568023946
 51
191.940793511192
  0
ARC
  8
3
  6
CONTINUOUS
 62
3
 10
1.25
 20
1.25000000000001
 30
0.0
 40
0.825000000000005
 50
7.00657490985747
 51
11.940793511193
  0
ARC
  8
3
  6
CONTINUOUS
 62
3
 10
2.0895829542564
 20
1.3531856236211
 30
0.0
 40
0.0208999999999999
 50
187.006574909859
 51
275.590800397105
  0
LINE
  8
3
  6
CONTINUOUS
 62
3
 10
2.0916190970767
 20
1.3323850437634
 30
0.0
 11
2.1384614272877
 21
1.336970381047
 31
0.0
  0
ARC
  8
3
  6
CONTINUOUS
 62
3
 10
2.148285778592
 20
1.2365829506025
 30
0.0
 40
0.100867011801621
 50
72.6651367704386
 51
95.5894158676267
  0
LINE
  8
3
  6
CONTINUOUS
 62
3
 10
2.178339686768
 20
1.3328685501133
 30
0.0
 11
2.2187066354437
 21
1.3216661552178
 31
0.0
  0
ARC
  8
3
  6
CONTINUOUS
 62
3
 10
2.138453942271
 20
1.0648714393597
 30
0.0
 40
0.269042786288958
 50
63.3423951242094
 51
72.6450922744545
  0
ARC
  8
3
  6
CONTINUOUS
 62
3
 10
1.51867938150508
 20
-0.171254413056693
 30
0.0
 40
1.65183978828835
 50
62.1111262512549
 51
63.3667721801929
  0
ARC
  8
3
  6
CONTINUOUS
 62
3
 10
2.2839934380633
 20
1.2748513035764
 30
0.0
 40
0.0157079632679486
 50
1.37679862082389
 51
62.1111262512494
  0
ARC
  8
3
  6
CONTINUOUS
 62
3
 10
1.24999999999999
 20
1.25
 30
0.0
 40
1.04999999999998
 50
358.62320137917
 51
1.37679862083031
  0
ARC
  8
3
  6
CONTINUOUS
 62
3
 10
2.2839934380633
 20
1.2251486964236
 30
0.0
 40
0.0157079632679485
 50
297.88887374875
 51
358.623201379175
  0
ARC
  8
3
  6
CONTINUOUS
 62
3
 10
1.5186793815051
 20
2.67125441305688
 30
0.0
 40
1.6518397882884
 50
296.633227819805
 51
297.888873748743
  0
ARC
  8
3
  6
CONTINUOUS
 62
3
 10
2.138453942271
 20
1.4351285606403
 30
0.0
 40
0.269042786288956
 50
287.354907725543
 51
296.657604875788
  0
LINE
  8
3
  6
CONTINUOUS
 62
3
 10
2.2187066354437
 20
1.1783338447822
 30
0.0
 11
2.178339686768
 21
1.1671314498868
 31
0.0
  0
ARC
  8
3
  6
CONTINUOUS
 62
3
 10
2.148285778592
 20
1.2634170493975
 30
0.0
 40
0.100867011801625
 50
264.410584132369
 51
287.334863229557
  0
LINE
  8
3
  6
CONTINUOUS
 62
3
 10
2.1384614272877
 20
1.1630296189531
 30
0.0
 11
2.0916190970767
 21
1.1676149562366
 31
0.0
  0
ARC
  8
3
  6
CONTINUOUS
 62
3
 10
2.0895829542564
 20
1.146814376379
 30
0.0
 40
0.0209000000000002
 50
84.4091996028922
 51
172.993425090138
  0
ARC
  8
3
  6
CONTINUOUS
 62
3
 10
1.25000000000001
 20
1.25000000000002
 30
0.0
 40
0.825000000000001
 50
348.059206488804
 51
352.993425090139
  0
ARC
  8
3
  6
CONTINUOUS
 62
3
 10
2.077596351193
 20
1.0749826023161
 30
0.0
 40
0.0208999999999991
 50
168.0592064888
 51
256.643431976046
  0
LINE
  8
3
  6
CONTINUOUS
 62
3
 10
2.07276823294
 20
1.0546479207564
 30
0.0
 11
2.1185613730771
 21
1.0437751320624
 31
0.0
  0
ARC
  8
3
  6
CONTINUOUS
 62
3
 10
2.0952576685491
 20
0.9456370078442
 30
0.0
 40
0.100867011801621
 50
53.7177683493902
 51
76.6420474465783
  0
LINE
  8
3
  6
CONTINUOUS
 62
3
 10
2.1549470561356
 20
1.0269470999567
 30
0.0
 11
2.1894894005116
 21
1.0032445549078
 31
0.0
  0
ARC
  8
3
  6
CONTINUOUS
 62
3
 10
2.0302039116822
 20
0.786421691947001
 30
0.0
 40
0.269042786288959
 50
44.3950267031564
 51
53.6977238534015
  0
ARC
  8
3
  6
CONTINUOUS
 62
3
 10
1.04264103799279
 20
-0.181486981273084
 30
0.0
 40
1.65183978828828
 50
43.1637578302041
 51
44.4194037591422
  0
ARC
  8
3
  6
CONTINUOUS
 62
3
 10
2.2360380266059
 20
0.937767670901002
 30
0.0
 40
0.0157079632679497
 50
342.429430199769
 51
43.1637578301964
  0
ARC
  8
3
  6
CONTINUOUS
 62
3
 10
1.2500000000001
 20
1.25000000000001
 30
0.0
 40
1.04999999999994
 50
339.675832958118
 51
342.429430199777
  0
ARC
  8
3
  6
CONTINUOUS
 62
3
 10
2.2198996164453
 20
0.890758088098502
 30
0.0
 40
0.0157079632679491
 50
278.941505327694
 51
339.675832958118
  0
ARC
  8
3
  6
CONTINUOUS
 62
3
 10
1.96560214504138
 20
2.50700687615149
 30
0.0
 40
1.65183978828848
 50
277.685859398751
 51
278.941505327689
  0
ARC
  8
3
  6
CONTINUOUS
 62
3
 10
2.1504262024313
 20
1.1366172611166
 30
0.0
 40
0.269042786288957
 50
268.407539304488
 51
277.710236454733
  0
LINE
  8
3
  6
CONTINUOUS
 62
3
 10
2.1429494753933
 20
0.867678384405
 30
0.0
 11
2.1011323076646
 21
0.870190092973001
 31
0.0
  0
ARC
  8
3
  6
CONTINUOUS
 62
3
 10
2.1039706861844
 20
0.971017161149999
 30
0.0
 40
0.10086701180162
 50
245.463215711314
 51
268.387494808502
  0
LINE
  8
3
  6
CONTINUOUS
 62
3
 10
2.0620828999521
 20
0.879258960239401
 30
0.0
 11
2.0192674729793
 21
0.8988055310571
 31
0.0
  0
ARC
  8
3
  6
CONTINUOUS
 62
3
 10
2.0105877167544
 20
0.879793118483199
 30
0.0
 40
0.0209000000000002
 50
65.4618311818424
 51
154.046056669088
  0
ARC
  8
3
  6
CONTINUOUS
 62
3
 10
1.25
 20
1.25000000000002
 30
0.0
 40
0.825000000000008
 50
329.111838067753
 51
334.046056669088
  0
ARC
  8
3
  6
CONTINUOUS
 62
3
 10
1.9759268419973
 20
0.815745431724902
 30
0.0
 40
0.0208999999999988
 50
149.111838067753
 51
237.696063554998
  0
LINE
  8
3
  6
CONTINUOUS
 62
3
 10
1.9647576641998
 20
0.7980802267352
 30
0.0
 11
2.0045392169753
 21
0.7729275474274
 31
0.0
  0
ARC
  8
3
  6
CONTINUOUS
 62
3
 10
1.9506327745949
 20
0.6876735179644
 30
0.0
 40
0.10086701180162
 50
34.7703999283367
 51
57.6946790255247
  0
LINE
  8
3
  6
CONTINUOUS
 62
3
 10
2.0334893702707
 20
0.745196892542101
 30
0.0
 11
2.0584639113541
 21
0.7115627358788
 31
0.0
  0
ARC
  8
3
  6
CONTINUOUS
 62
3
 10
1.8374066811517
 20
0.558207847370502
 30
0.0
 40
0.269042786288965
 50
25.4476582821057
 51
34.7503554323508
  0
ARC
  8
3
  6
CONTINUOUS
 62
3
 10
0.589073255519492
 20
-0.0365957232593869
 30
0.0
 40
1.65183978828827
 50
24.2163894091504
 51
25.4720353380884
  0
ARC
  8
3
  6
CONTINUOUS
 62
3
 10
2.0812300950093
 20
0.634519255867299
 30
0.0
 40
0.0157079632679497
 50
323.482061778724
 51
24.21638940915
  0
ARC
  8
3
  6
CONTINUOUS
 62
3
 10
1.24999999999999
 20
1.25000000000003
 30
0.0
 40
1.05000000000005
 50
320.728464537063
 51
323.482061778721
  0
ARC
  8
3
  6
CONTINUOUS
 62
3
 10
2.0507021218423
 20
0.595296915140401
 30
0.0
 40
0.0157079632679491
 50
259.994136906636
 51
320.728464537062
  0
ARC
  8
3
  6
CONTINUOUS
 62
3
 10
2.33497831245108
 20
2.20654313974342
 30
0.0
 40
1.65183978828829
 50
258.738490977699
 51
259.994136906637
  0
ARC
  8
3
  6
CONTINUOUS
 62
3
 10
2.06482331200621
 20
0.85039274066549
 30
0.0
 40
0.269042786288958
 50
249.460170883436
 51
258.762868033682
  0
LINE
  8
3
  6
CONTINUOUS
 62
3
 10
1.9704273841453
 20
0.5984534034086
 30
0.0
 11
1.9316915363473
 21
0.6144070328435
 31
0.0
  0
ARC
  8
3
  6
CONTINUOUS
 62
3
 10
1.9671146192083
 20
0.708849392356599
 30
0.0
 40
0.10086701180162
 50
226.515847290265
 51
249.440126387453
  0
LINE
  8
3
  6
CONTINUOUS
 62
3
 10
1.8977025896423
 20
0.6356638458237
 30
0.0
 11
1.8635537817699
 21
0.668053475931099
 31
0.0
  0
ARC
  8
3
  6
CONTINUOUS
 62
3
 10
1.8491709984076
 20
0.652889520551501
 30
0.0
 40
0.0208999999999999
 50
46.5144627607912
 51
135.098688248037
  0
ARC
  8
3
  6
CONTINUOUS
 62
3
 10
1.25
 20
1.25000000000002
 30
0.0
 40
0.82500000000003
 50
310.164469646698
 51
315.098688248034
  0
ARC
  8
3
  6
CONTINUOUS
 62
3
 10
1.7955918955557
 20
0.6035664817602
 30
0.0
 40
0.0208999999999998
 50
130.164469646702
 51
218.748695133948
  0
LINE
  8
3
  6
CONTINUOUS
 62
3
 10
1.7792920119356
 20
0.5904850524051
 30
0.0
 11
1.8087510288321
 21
0.553778165570399
 31
0.0
  0
ARC
  8
3
  6
CONTINUOUS
 62
3
 10
1.7300834480757
 20
0.490646827807502
 30
0.0
 40
0.10086701180162
 50
15.8230315072832
 51
38.7473106044713
  0
LINE
  8
3
  6
CONTINUOUS
 62
3
 10
1.8271284540467
 20
0.5181499346479
 30
0.0
 11
1.8398288127912
 21
0.4782289491322
 31
0.0
  0
ARC
  8
3
  6
CONTINUOUS
 62
3
 10
1.5809548221647
 20
0.404960416792502
 30
0.0
 40
0.269042786288958
 50
6.50028986105142
 51
15.8029870112965
  0
ARC
  8
3
  6
CONTINUOUS
 62
3
 10
0.207127141145828
 20
0.247718144958912
 30
0.0
 40
1.65183978828841
 50
5.26902098809699
 51
6.52466691703501
  0
ARC
  8
3
  6
CONTINUOUS
 62
3
 10
1.8363454847547
 20
0.3979677296281
 30
0.0
 40
0.0157079632679487
 50
304.534693357666
 51
5.26902098809226
  0
ARC
  8
3
  6
CONTINUOUS
 62
3
 10
1.24999999999999
 20
1.25000000000002
 30
0.0
 40
1.05
 50
301.781096116012
 51
304.534693357671
  0
ARC
  8
3
  6
CONTINUOUS
 62
3
 10
1.7947361281641
 20
0.370782980192001
 30
0.0
 40
0.0157079632679498
 50
241.046768485586
 51
301.781096116012
  0
ARC
  8
3
  6
CONTINUOUS
 62
3
 10
2.58678024453357
 20
1.80242311184841
 30
0.0
 40
1.65183978828833
 50
239.791122556646
 51
241.046768485584
  0
ARC
  8
3
  6
CONTINUOUS
 62
3
 10
1.8909216724388
 20
0.6074718673087
 30
0.0
 40
0.26904278628897
 50
230.512802462383
 51
239.815499612628
  0
LINE
  8
3
  6
CONTINUOUS
 62
3
 10
1.7198358072426
 20
0.39983360594
 30
0.0
 11
1.6883789095327
 21
0.4275003329464
 31
0.0
  0
ARC
  8
3
  6
CONTINUOUS
 62
3
 10
1.7525480560612
 20
0.505323688718301
 30
0.0
 40
0.100867011801619
 50
207.568478869211
 51
230.492757966399
  0
LINE
  8
3
  6
CONTINUOUS
 62
3
 10
1.6631336536036
 20
0.4586415861207
 30
0.0
 11
1.6413520180379
 21
0.5003643565187
 31
0.0
  0
ARC
  8
3
  6
CONTINUOUS
 62
3
 10
1.6228248052874
 20
0.4906921081917
 30
0.0
 40
0.0209000000000011
 50
27.5670943397334
 51
116.151319826979
  0
ARC
  8
3
  6
CONTINUOUS
 62
3
 10
1.25000000000002
 20
1.25
 30
0.0
 40
0.825000000000013
 50
291.217101225646
 51
296.151319826982
  0
ARC
  8
3
  6
CONTINUOUS
 62
3
 10
1.5561336015001
 20
0.461438633946301
 30
0.0
 40
0.0208999999999995
 50
111.217101225649
 51
199.801326712895
  0
LINE
  8
3
  6
CONTINUOUS
 62
3
 10
1.5364693573665
 20
0.4543585560757
 30
0.0
 11
1.5524134967993
 21
0.4100752224687
 31
0.0
  0
ARC
  8
3
  6
CONTINUOUS
 62
3
 10
1.4575096306953
 20
0.375907836436106
 30
0.0
 40
0.100867011801625
 50
356.875663086227
 51
19.7999421834166
  0
LINE
  8
3
  6
CONTINUOUS
 62
3
 10
1.5582267147562
 20
0.3704102871583
 30
0.0
 11
1.5572766102255
 21
0.328528531008899
 31
0.0
  0
ARC
  8
3
  6
CONTINUOUS
 62
3
 10
1.2886388729029
 20
0.343286137195301
 30
0.0
 40
0.26904278628896
 50
347.55292144
 51
356.855618590245
  0
ARC
  8
3
  6
CONTINUOUS
 62
3
 10
-0.0618075171312
 20
0.640644804176413
 30
0.0
 40
1.65183978828838
 50
346.321652567044
 51
347.577298495982
  0
ARC
  8
3
  6
CONTINUOUS
 62
3
 10
1.5279212431393
 20
0.2537471205265
 30
0.0
 40
0.0157079632679487
 50
285.587324936617
 51
346.321652567042
  0
ARC
  8
3
  6
CONTINUOUS
 62
3
 10
1.25
 20
1.25
 30
0.0
 40
1.04999999999999
 50
282.83372769496
 51
285.587324936619
  0
ARC
  8
3
  6
CONTINUOUS
 62
3
 10
1.4797395225475
 20
0.241545851797402
 30
0.0
 40
0.0157079632679478
 50
222.099400064533
 51
282.833727694958
  0
ARC
  8
3
  6
CONTINUOUS
 62
3
 10
2.6937212948382
 20
1.33843946805679
 30
0.0
 40
1.65183978828832
 50
220.843754135594
 51
222.099400064532
  0
ARC
  8
3
  6
CONTINUOUS
 62
3
 10
1.6475662247382
 20
0.434178886980201
 30
0.0
 40
0.269042786288957
 50
211.565434041333
 51
220.868131191578
  0
LINE
  8
3
  6
CONTINUOUS
 62
3
 10
1.4183302303714
 20
0.2933425289586
 30
0.0
 11
1.3975611257206
 21
0.3297242343719
 31
0.0
  0
ARC
  8
3
  6
CONTINUOUS
 62
3
 10
1.4835226132033
 20
0.382495218250802
 30
0.0
 40
0.100867011801617
 50
188.621110448159
 51
211.545389545347
  0
LINE
  8
3
  6
CONTINUOUS
 62
3
 10
1.3837952757678
 20
0.367375289752401
 30
0.0
 11
1.3767411906992
 21
0.413909890872901
 31
0.0
  0
ARC
  8
3
  6
CONTINUOUS
 62
3
 10
1.3560772595414
 20
0.410777487785201
 30
0.0
 40
0.0209000000000003
 50
8.619725918686
 51
97.2039514059319
  0
ARC
  8
3
  6
CONTINUOUS
 62
3
 10
1.25000000000002
 20
1.25
 30
0.0
 40
0.824999999999988
 50
272.269732804592
 51
277.203951405928
  0
ARC
  8
3
  6
CONTINUOUS
 62
3
 10
1.2835009815698
 20
0.4047636459346
 30
0.0
 40
0.0209000000000015
 50
92.2697328045935
 51
180.853958291839
  0
LINE
  8
3
  6
CONTINUOUS
 62
3
 10
1.2626033028967
 20
0.404452155844501
 30
0.0
 11
1.2633047699595
 21
0.3573911617883
 31
0.0
  0
ARC
  8
3
  6
CONTINUOUS
 62
3
 10
1.1624489249854
 20
0.355890293924302
 30
0.0
 40
0.100867011801617
 50
337.92829466518
 51
0.852573762368799
  0
LINE
  8
3
  6
CONTINUOUS
 62
3
 10
1.2559238282915
 20
0.317987833295801
 30
0.0
 11
1.2414262190539
 21
0.2786838446538
 31
0.0
  0
ARC
  8
3
  6
CONTINUOUS
 62
3
 10
0.992135802218202
 20
0.379868373748103
 30
0.0
 40
0.269042786288955
 50
328.605553018947
 51
337.908250169192
  0
ARC
  8
3
  6
CONTINUOUS
 62
3
 10
-0.188587476136211
 20
1.09960455398147
 30
0.0
 40
1.65183978828836
 50
327.37428414599
 51
328.629930074928
  0
ARC
  8
3
  6
CONTINUOUS
 62
3
 10
1.1893799224373
 20
0.2174859693721
 30
0.0
 40
0.015707963267949
 50
266.639956515566
 51
327.374284145992
  0
ARC
  8
3
  6
CONTINUOUS
 62
3
 10
1.25
 20
1.24999999999998
 30
0.0
 40
1.04999999999994
 50
263.886359273905
 51
266.639956515565
  0
ARC
  8
3
  6
CONTINUOUS
 62
3
 10
1.1398470748869
 20
0.221590378139
 30
0.0
 40
0.0157079632679496
 50
203.152031643488
 51
263.886359273912
  0
ARC
  8
3
  6
CONTINUOUS
 62
3
 10
2.64421274120311
 20
0.86487203562149
 30
0.0
 40
1.65183978828831
 50
201.896385714543
 51
203.152031643481
  0
ARC
  8
3
  6
CONTINUOUS
 62
3
 10
1.3611283077117
 20
0.349292783016198
 30
0.0
 40
0.269042786288963
 50
192.618065620281
 51
201.920762770526
  0
LINE
  8
3
  6
CONTINUOUS
 62
3
 10
1.0985834611269
 20
0.290520133034601
 30
0.0
 11
1.0907528042899
 21
0.331674294553
 31
0.0
  0
ARC
  8
3
  6
CONTINUOUS
 62
3
 10
1.1891913717282
 20
0.353674351609499
 30
0.0
 40
0.100867011801617
 50
169.673742027108
 51
192.598021124296
  0
LINE
  8
3
  6
CONTINUOUS
 62
3
 10
1.0899581037549
 20
0.371755076072899
 30
0.0
 11
1.0983959887562
 21
0.4180587618259
 31
0.0
  0
ARC
  8
3
  6
CONTINUOUS
 62
3
 10
1.0778345967658
 20
0.4218056484561
 30
0.0
 40
0.0208999999999997
 50
349.67235749763
 51
78.2565829848772
  0
ARC
  8
3
  6
CONTINUOUS
 62
3
 10
1.25000000000002
 20
1.25
 30
0.0
 40
0.82500000000002
 50
253.32236438354
 51
258.256582984875
  0
ARC
  8
3
  6
CONTINUOUS
 62
3
 10
1.007238010465
 20
0.4396831320792
 30
0.0
 40
0.0209000000000011
 50
73.3223643835441
 51
161.90658987079
  0
LINE
  8
3
  6
CONTINUOUS
 62
3
 10
0.987371484997599
 20
0.4461739845541
 30
0.0
 11
0.972754264849799
 21
0.401435118981199
 31
0.0
  0
ARC
  8
3
  6
CONTINUOUS
 62
3
 10
0.876875736748199
 20
0.4327634116073
 30
0.0
 40
0.100867011801618
 50
318.980926244124
 51
341.905205341312
  0
LINE
  8
3
  6
CONTINUOUS
 62
3
 10
0.9529790031138
 20
0.366563359354501
 30
0.0
 11
0.9265049300837
 21
0.3340963352535
 31
0.0
  0
ARC
  8
3
  6
CONTINUOUS
 62
3
 10
0.723576318538504
 20
0.5107428734886
 30
0.0
 40
0.269042786288962
 50
309.658184597896
 51
318.96088174814
  0
ARC
  8
3
  6
CONTINUOUS
 62
3
 10
-0.159474160117219
 20
1.57486198398821
 30
0.0
 40
1.65183978828831
 50
308.426915724938
 51
309.682561653876
  0
ARC
  8
3
  6
CONTINUOUS
 62
3
 10
0.8574077277567
 20
0.293113734542
 30
0.0
 40
0.0157079632679484
 50
247.692588094515
 51
308.426915724941
  0
ARC
  8
3
  6
CONTINUOUS
 62
3
 10
1.25000000000001
 20
1.24999999999996
 30
0.0
 40
1.04999999999998
 50
244.938990852854
 51
247.692588094513
  0
ARC
  8
3
  6
CONTINUOUS
 62
3
 10
0.811891405860999
 20
0.3130790444286
 30
0.0
 40
0.0157079632679481
 50
184.204663222427
 51
244.938990852853
  0
ARC
  8
3
  6
CONTINUOUS
 62
3
 10
2.4436196036191
 20
0.433039194002785
 30
0.0
 40
1.65183978828842
 50
182.94901729349
 51
184.204663222429
  0
ARC
  8
3
  6
CONTINUOUS
 62
3
 10
1.0626479142113
 20
0.362012281924999
 30
0.0
 40
0.26904278628895
 50
173.670697199229
 51
182.973394349474
  0
LINE
  8
3
  6
CONTINUOUS
 62
3
 10
0.7952450233389
 20
0.3916722685604
 30
0.0
 11
0.8012013874893
 21
0.4331391942107
 31
0.0
  0
ARC
  8
3
  6
CONTINUOUS
 62
3
 10
0.9014496886694
 20
0.421984276896595
 30
0.0
 40
0.100867011801621
 50
150.726373606054
 51
173.650652703242
  0
LINE
  8
3
  6
CONTINUOUS
 62
3
 10
0.8134639545061
 20
0.471306327275
 30
0.0
 11
0.83647943381
 21
0.512361374833301
 31
0.0
  0
ARC
  8
3
  6
CONTINUOUS
 62
3
 10
0.8182487268522
 20
0.522581517876301
 30
0.0
 40
0.0209
 50
330.724989076577
 51
59.3092145638242
  0
ARC
  8
3
  6
CONTINUOUS
 62
3
 10
1.25
 20
1.25
 30
0.0
 40
0.825000000000005
 50
234.374995962489
 51
239.309214563824
  0
ARC
  8
3
  6
CONTINUOUS
 62
3
 10
0.757282067766801
 20
0.562413024224699
 30
0.0
 40
0.0208999999999999
 50
54.3749959624896
 51
142.959221449736
  0
LINE
  8
3
  6
CONTINUOUS
 62
3
 10
0.7405995418003
 20
0.575002834683101
 30
0.0
 11
0.7122476370544
 21
0.537434247873399
 31
0.0
  0
ARC
  8
3
  6
CONTINUOUS
 62
3
 10
0.6317363520538
 20
0.5981967943748
 30
0.0
 40
0.100867011801617
 50
300.033557823074
 51
322.957836920262
  0
LINE
  8
3
  6
CONTINUOUS
 62
3
 10
0.682221011704399
 20
0.510872953359
 30
0.0
 11
0.6466393514822
 21
0.4887611996381
 31
0.0
  0
ARC
  8
3
  6
CONTINUOUS
 62
3
 10
0.5120630090501
 20
0.721727353642712
 30
0.0
 40
0.269042786288969
 50
290.710816176841
 51
300.013513327086
  0
ARC
  8
3
  6
CONTINUOUS
 62
3
 10
0.0223775513953468
 20
2.014915577277
 30
0.0
 40
1.65183978828838
 50
289.479547303884
 51
290.735193232822
  0
ARC
  8
3
  6
CONTINUOUS
 62
3
 10
0.5679789974704
 20
0.4724349741946
 30
0.0
 40
0.0157079632679486
 50
228.745219673462
 51
289.479547303888
  0
ARC
  8
3
  6
CONTINUOUS
 62
3
 10
1.25
 20
1.24999999999999
 30
0.0
 40
1.04999999999999
 50
225.991622431802
 51
228.745219673461
  0
ARC
  8
3
  6
CONTINUOUS
 62
3
 10
0.531411600965299
 20
0.506097634080901
 30
0.0
 40
0.0157079632679497
 50
165.257294801375
 51
225.991622431801
  0
ARC
  8
3
  6
CONTINUOUS
 62
3
 10
2.1136792610664
 20
0.0897367321666847
 30
0.0
 40
1.65183978828835
 50
164.001648872437
 51
165.257294801375
  0
ARC
  8
3
  6
CONTINUOUS
 62
3
 10
0.784470026273198
 20
0.470959028636195
 30
0.0
 40
0.269042786288958
 50
154.723328778176
 51
164.026025928421
  0
LINE
  8
3
  6
CONTINUOUS
 62
3
 10
0.5411863435227
 20
0.5858375321147
 30
0.0
 11
0.560284264182199
 21
0.6231236370771
 31
0.0
  0
ARC
  8
3
  6
CONTINUOUS
 62
3
 10
0.6514788401586
 20
0.580022553769799
 30
0.0
 40
0.100867011801616
 50
131.779005185003
 51
154.703284282191
  0
LINE
  8
3
  6
CONTINUOUS
 62
3
 10
0.584275259341199
 20
0.6552411205941
 30
0.0
 11
0.6193742486431
 21
0.686598578520099
 31
0.0
  0
ARC
  8
3
  6
CONTINUOUS
 62
3
 10
0.6054498066953
 20
0.702184466895201
 30
0.0
 40
0.0208999999999991
 50
311.777620655525
 51
40.3618461427727
  0
ARC
  8
3
  6
CONTINUOUS
 62
3
 10
1.25000000000002
 20
1.25
 30
0.0
 40
0.824999999999997
 50
215.427627541436
 51
220.361846142771
  0
ARC
  8
3
  6
CONTINUOUS
 62
3
 10
0.560719758332401
 20
0.7596536342067
 30
0.0
 40
0.0208999999999998
 50
35.4276275414389
 51
124.011853028685
  0
LINE
  8
3
  6
CONTINUOUS
 62
3
 10
0.5490290424114
 20
0.776978101334301
 30
0.0
 11
0.510014821871799
 21
0.7506509326052
 31
0.0
  0
ARC
  8
3
  6
CONTINUOUS
 62
3
 10
0.453595426963301
 20
0.8342631682406
 30
0.0
 40
0.10086701180162
 50
281.086189402021
 51
304.010468499209
  0
LINE
  8
3
  6
CONTINUOUS
 62
3
 10
0.4729906836755
 20
0.735278431604801
 30
0.0
 11
0.4525739724641
 21
0.73059826574185
 31
0.0
  0
LINE
  8
9
  6
CONTINUOUS
 62
9
 10
1.57115247618691
 20
3.93768193576981
 30
0.0
 11
1.55708390128093
 21
3.87422269530701
 31
0.0
  0
LINE
  8
9
  6
CONTINUOUS
 62
9
 10
1.55708390128093
 20
3.87422269530701
 30
0.0
 11
1.57211919125615
 21
3.92190854284442
 31
0.0
  0
LINE
  8
9
  6
CONTINUOUS
 62
9
 10
1.57311356230245
 20
3.56571476502041
 30
0.0
 11
1.51112196050381
 21
3.54616888805264
 31
0.0
  0
LINE
  8
9
  6
CONTINUOUS
 62
9
 10
1.51112196050381
 20
3.54616888805264
 30
0.0
 11
1.55993676085981
 21
3.55699086874954
 31
0.0
  0
LINE
  8
9
  6
CONTINUOUS
 62
9
 10
1.25275466302569
 20
3.37531019021449
 30
0.0
 11
1.26682323793167
 21
3.43876943067729
 31
0.0
  0
LINE
  8
9
  6
CONTINUOUS
 62
9
 10
1.26682323793167
 20
3.43876943067729
 30
0.0
 11
1.25178794795645
 21
3.39108358313988
 31
0.0
  0
LINE
  8
9
  6
CONTINUOUS
 62
9
 10
1.2555812208243
 20
3.75012178267161
 30
0.0
 11
1.25
 21
3.87795275590551
 31
0.0
  0
LINE
  8
9
  6
CONTINUOUS
 62
9
 10
1.25
 20
3.87795275590551
 30
0.0
 11
1.24781903063173
 21
3.82800034482642
 31
0.0
  0
LINE
  8
9
  6
CONTINUOUS
 62
9
 10
1.24920642308985
 20
4.12673838706761
 30
0.0
 11
1.18721482129121
 21
4.10719251009984
 31
0.0
  0
LINE
  8
9
  6
CONTINUOUS
 62
9
 10
1.18721482129121
 20
4.10719251009984
 30
0.0
 11
1.23602962164721
 21
4.11801449079674
 31
0.0
  0
LINE
  8
9
  6
CONTINUOUS
 62
9
 10
0.923338197761712
 20
3.93768193576981
 30
0.0
 11
0.909269622855733
 21
3.87422269530701
 31
0.0
  0
LINE
  8
9
  6
CONTINUOUS
 62
9
 10
0.909269622855733
 20
3.87422269530701
 30
0.0
 11
0.924304912830948
 21
3.92190854284442
 31
0.0
  0
LINE
  8
9
  6
CONTINUOUS
 62
9
 10
0.924044283505291
 20
3.56495321209983
 30
0.0
 11
0.880130920010271
 21
3.51703018520718
 31
0.0
  0
LINE
  8
9
  6
CONTINUOUS
 62
9
 10
0.880130920010271
 20
3.51703018520718
 30
0.0
 11
0.916994786850778
 21
3.55080969558796
 31
0.0
  0
LINE
  8
9
  6
CONTINUOUS
 62
9
 10
0.492435080989501
 20
3.08599158530444
 30
0.0
 11
0.4525739724641
 21
3.23059826574185
 31
0.0
  0
LINE
  8
9
  6
CONTINUOUS
 62
9
 10
0.4525739724641
 20
3.23059826574185
 30
0.0
 11
0.46160934657519
 21
3.18142142144829
 31
0.0
  0
LINE
  8
9
  6
CONTINUOUS
 62
9
 10
1.57115247618691
 20
1.43768193576981
 30
0.0
 11
1.55708390128093
 21
1.37422269530701
 31
0.0
  0
LINE
  8
9
  6
CONTINUOUS
 62
9
 10
1.55708390128093
 20
1.37422269530701
 30
0.0
 11
1.57211919125615
 21
1.42190854284442
 31
0.0
  0
LINE
  8
9
  6
CONTINUOUS
 62
9
 10
1.57311356230245
 20
1.06571476502041
 30
0.0
 11
1.51112196050381
 21
1.04616888805264
 31
0.0
  0
LINE
  8
9
  6
CONTINUOUS
 62
9
 10
1.51112196050381
 20
1.04616888805264
 30
0.0
 11
1.55993676085981
 21
1.05699086874954
 31
0.0
  0
LINE
  8
9
  6
CONTINUOUS
 62
9
 10
1.25275466302569
 20
0.875310190214495
 30
0.0
 11
1.26682323793167
 21
0.938769430677291
 31
0.0
  0
LINE
  8
9
  6
CONTINUOUS
 62
9
 10
1.26682323793167
 20
0.938769430677291
 30
0.0
 11
1.25178794795645
 21
0.89108358313988
 31
0.0
  0
LINE
  8
9
  6
CONTINUOUS
 62
9
 10
1.2555812208243
 20
1.25012178267161
 30
0.0
 11
1.25
 21
1.37795275590551
 31
0.0
  0
LINE
  8
9
  6
CONTINUOUS
 62
9
 10
1.25
 20
1.37795275590551
 30
0.0
 11
1.24781903063173
 21
1.32800034482642
 31
0.0
  0
LINE
  8
9
  6
CONTINUOUS
 62
9
 10
1.24920642308985
 20
1.62673838706761
 30
0.0
 11
1.18721482129121
 21
1.60719251009984
 31
0.0
  0
LINE
  8
9
  6
CONTINUOUS
 62
9
 10
1.18721482129121
 20
1.60719251009984
 30
0.0
 11
1.23602962164721
 21
1.61801449079674
 31
0.0
  0
LINE
  8
9
  6
CONTINUOUS
 62
9
 10
0.923338197761712
 20
1.43768193576981
 30
0.0
 11
0.909269622855733
 21
1.37422269530701
 31
0.0
  0
LINE
  8
9
  6
CONTINUOUS
 62
9
 10
0.909269622855733
 20
1.37422269530701
 30
0.0
 11
0.924304912830948
 21
1.42190854284442
 31
0.0
  0
LINE
  8
9
  6
CONTINUOUS
 62
9
 10
0.924044283505291
 20
1.06495321209983
 30
0.0
 11
0.880130920010271
 21
1.01703018520718
 31
0.0
  0
LINE
  8
9
  6
CONTINUOUS
 62
9
 10
0.880130920010271
 20
1.01703018520718
 30
0.0
 11
0.916994786850778
 21
1.05080969558796
 31
0.0
  0
LINE
  8
9
  6
CONTINUOUS
 62
9
 10
0.492435080989504
 20
0.585991585304445
 30
0.0
 11
0.4525739724641
 21
0.73059826574185
 31
0.0
  0
LINE
  8
9
  6
CONTINUOUS
 62
9
 10
0.4525739724641
 20
0.73059826574185
 30
0.0
 11
0.461609346575191
 21
0.681421421448295
 31
0.0
  0
LINE
  8
10
  6
CONTINUOUS
 62
10
 10
0.210314250621471
 20
4.79821787690974
 30
0.0
 11
1.57115247618691
 21
3.93768193576981
 31
0.0
  0
LINE
  8
10
  6
CONTINUOUS
 62
10
 10
1.57211919125615
 20
3.92190854284442
 30
0.0
 11
1.57311356230245
 21
3.56571476502041
 31
0.0
  0
LINE
  8
10
  6
CONTINUOUS
 62
10
 10
1.55993676085981
 20
3.55699086874954
 30
0.0
 11
1.25275466302569
 21
3.37531019021449
 31
0.0
  0
LINE
  8
10
  6
CONTINUOUS
 62
10
 10
1.25178794795645
 20
3.39108358313988
 30
0.0
 11
1.2555812208243
 21
3.75012178267161
 31
0.0
  0
LINE
  8
10
  6
CONTINUOUS
 62
10
 10
1.24781903063173
 20
3.82800034482642
 30
0.0
 11
1.24920642308985
 21
4.12673838706761
 31
0.0
  0
LINE
  8
10
  6
CONTINUOUS
 62
10
 10
1.23602962164721
 20
4.11801449079674
 30
0.0
 11
0.923338197761712
 21
3.93768193576981
 31
0.0
  0
LINE
  8
10
  6
CONTINUOUS
 62
10
 10
0.924304912830948
 20
3.92190854284442
 30
0.0
 11
0.924044283505291
 21
3.56495321209983
 31
0.0
  0
LINE
  8
10
  6
CONTINUOUS
 62
10
 10
0.916994786850778
 20
3.55080969558796
 30
0.0
 11
0.492435080989501
 21
3.08599158530444
 31
0.0
  0
LINE
  8
10
  6
CONTINUOUS
 62
10
 10
0.46160934657519
 20
3.18142142144829
 30
0.0
 11
1.57115247618691
 21
1.43768193576981
 31
0.0
  0
LINE
  8
10
  6
CONTINUOUS
 62
10
 10
1.57211919125615
 20
1.42190854284442
 30
0.0
 11
1.57311356230245
 21
1.06571476502041
 31
0.0
  0
LINE
  8
10
  6
CONTINUOUS
 62
10
 10
1.55993676085981
 20
1.05699086874954
 30
0.0
 11
1.25275466302569
 21
0.875310190214495
 31
0.0
  0
LINE
  8
10
  6
CONTINUOUS
 62
10
 10
1.25178794795645
 20
0.89108358313988
 30
0.0
 11
1.2555812208243
 21
1.25012178267161
 31
0.0
  0
LINE
  8
10
  6
CONTINUOUS
 62
10
 10
1.24781903063173
 20
1.32800034482642
 30
0.0
 11
1.24920642308985
 21
1.62673838706761
 31
0.0
  0
LINE
  8
10
  6
CONTINUOUS
 62
10
 10
1.23602962164721
 20
1.61801449079674
 30
0.0
 11
0.923338197761712
 21
1.43768193576981
 31
0.0
  0
LINE
  8
10
  6
CONTINUOUS
 62
10
 10
0.924304912830948
 20
1.42190854284442
 30
0.0
 11
0.924044283505291
 21
1.06495321209983
 31
0.0
  0
LINE
  8
10
  6
CONTINUOUS
 62
10
 10
0.916994786850778
 20
1.05080969558796
 30
0.0
 11
0.492435080989504
 21
0.585991585304445
 31
0.0
  0
LINE
  8
10
  6
CONTINUOUS
 62
10
 10
0.461609346575191
 20
0.681421421448295
 30
0.0
 11
0.110314250621471
 21
0.201782123089836
 31
0.0
  0
ENDSEC
  0
EOF
